<?xml version="1.0" standalone="no"?>
<!DOCTYPE svg PUBLIC "-//W3C//DTD SVG 20010904//EN"
 "http://www.w3.org/TR/2001/REC-SVG-20010904/DTD/svg10.dtd">
<svg version="1.0" xmlns="http://www.w3.org/2000/svg"
 width="950.000000pt" height="960.000000pt" viewBox="0 0 950.000000 960.000000"
 preserveAspectRatio="xMidYMid meet">

<g transform="translate(0.000000,960.000000) scale(0.100000,-0.100000)"
fill="#000000" stroke="none">
<path d="M1650 9589 c0 -11 24 -39 34 -39 3 0 0 11 -6 25 -11 25 -28 34 -28
14z"/>
<path d="M1860 9585 c-6 -7 -21 -10 -35 -7 -15 2 -25 0 -25 -8 0 -7 -8 -9 -20
-5 -11 4 -20 2 -20 -4 0 -6 7 -11 16 -11 9 0 14 -7 12 -17 -2 -11 -12 -18 -25
-18 -12 0 -28 -7 -35 -17 -7 -9 -22 -19 -33 -22 -12 -3 -8 -4 8 -2 31 4 36 -8
10 -23 -13 -7 -23 -5 -38 7 -11 9 -14 10 -7 2 15 -17 16 -30 2 -30 -6 0 -34
-16 -63 -35 -66 -44 -54 -45 26 -1 49 27 284 131 357 159 12 4 12 6 1 6 -8 1
-53 -14 -100 -33 -47 -18 -97 -37 -111 -40 -24 -7 -24 -6 5 18 17 14 35 26 40
26 20 0 115 49 115 59 0 14 -68 11 -80 -4z"/>
<path d="M3836 9578 c3 -12 15 -31 26 -42 22 -24 53 -88 63 -131 7 -29 7 -29
-8 -10 -24 31 -28 14 -10 -46 21 -71 86 -261 111 -324 11 -27 26 -66 34 -85 7
-19 16 -37 19 -40 13 -12 103 -227 124 -297 6 -21 15 -27 31 -20 4 1 7 34 8
74 2 61 0 69 -10 55 -8 -9 -14 -25 -14 -35 0 -10 -5 -15 -10 -12 -6 3 -7 17
-4 29 3 15 -1 29 -12 40 -12 13 -14 20 -5 29 8 8 14 8 23 -1 7 -7 16 -12 21
-12 5 0 -9 17 -31 38 -22 20 -42 49 -46 64 l-6 27 41 -14 c53 -19 52 -19 46 6
-5 17 -3 18 9 8 8 -7 13 -18 10 -25 -5 -13 60 -134 71 -134 3 0 3 21 0 48 l-6
47 14 -50 c17 -58 16 -137 -3 -154 -10 -10 -12 -7 -8 13 3 14 0 26 -5 26 -5 0
-9 -18 -9 -41 0 -32 -4 -42 -19 -46 -18 -5 -31 -31 -31 -63 1 -12 3 -11 11 3
13 23 29 13 29 -20 0 -18 -4 -24 -15 -19 -10 3 -15 -1 -15 -12 1 -19 30 -63
30 -44 0 7 6 11 13 9 6 -1 12 5 11 13 -1 21 43 20 56 0 9 -13 11 -13 20 0 5 8
10 21 10 28 0 6 12 12 28 12 35 0 61 35 31 43 -24 6 -15 37 11 37 25 0 31 12
15 33 -15 21 -45 13 -45 -13 0 -22 -29 -50 -31 -29 -1 8 0 21 1 29 1 12 -1 13
-11 3 -19 -19 -36 -16 -42 7 -6 25 9 36 28 20 20 -16 19 -3 0 17 -15 14 -12
33 5 33 5 0 15 -7 24 -15 18 -19 46 -9 46 15 0 25 -15 33 -38 21 -26 -14 -48
1 -27 19 14 11 13 14 -2 26 -16 12 -16 15 -3 24 21 14 30 12 30 -5 0 -8 5 -15
10 -15 6 0 10 9 10 21 0 12 5 19 13 16 6 -2 11 -15 9 -29 -1 -14 4 -31 13 -38
12 -10 15 -9 15 5 0 11 5 15 15 11 23 -9 19 29 -5 40 -14 6 -17 13 -11 23 8
13 12 13 26 1 15 -13 17 -11 13 10 -2 20 1 24 17 22 28 -5 30 -9 15 -27 -11
-13 -8 -15 15 -15 17 0 25 -5 22 -12 -2 -7 -12 -13 -22 -13 -24 0 -30 -21 -12
-40 17 -17 26 -9 47 43 7 17 16 32 21 32 5 0 9 7 9 15 0 8 11 17 25 21 17 4
25 13 25 28 0 33 -8 36 -53 20 -54 -19 -97 -25 -97 -13 0 5 -8 9 -18 9 -10 0
-29 11 -42 25 -13 14 -30 23 -37 21 -8 -3 -13 2 -13 13 0 10 -6 34 -14 53 -13
30 -13 41 1 89 20 69 80 129 129 129 8 0 14 5 14 10 0 16 57 12 74 -6 9 -8 19
-27 22 -42 4 -15 11 -33 17 -40 7 -9 5 -18 -7 -30 -16 -16 -18 -16 -36 6 -19
23 -40 29 -40 13 0 -6 5 -13 10 -16 6 -3 10 -25 11 -48 1 -62 11 -88 28 -78 8
5 11 16 8 25 -4 10 4 23 24 37 24 17 29 26 24 46 -4 16 -2 22 5 18 5 -3 10
-12 10 -20 0 -7 6 -16 13 -18 9 -4 9 -8 -2 -15 -11 -8 -12 -16 -3 -39 13 -36
14 -100 2 -108 -6 -3 -10 -18 -10 -33 1 -25 2 -26 15 -9 13 18 14 18 25 -3 6
-11 10 -33 8 -48 -2 -19 2 -28 14 -30 13 -2 16 1 12 12 -3 8 -2 21 2 28 5 7 7
24 6 38 -1 14 11 -6 28 -45 39 -91 43 -105 31 -105 -6 0 -14 12 -17 28 -4 15
-13 36 -20 47 -14 19 -14 19 -14 -3 0 -12 -4 -22 -9 -22 -5 0 -4 -11 2 -24 7
-13 15 -22 19 -20 5 3 8 -1 8 -8 0 -7 11 -26 26 -41 14 -15 22 -32 19 -37 -4
-6 0 -17 9 -25 11 -11 15 -12 19 -2 2 6 7 -3 11 -20 4 -18 12 -33 17 -33 5 0
9 -9 9 -21 0 -13 -4 -18 -12 -14 -7 4 -6 1 3 -7 23 -20 31 -48 15 -54 -12 -4
-11 -9 5 -25 10 -10 19 -27 19 -36 0 -15 2 -16 10 -3 8 13 10 12 11 -5 1 -11
2 -24 4 -30 1 -5 3 -22 3 -36 1 -14 11 -36 22 -49 11 -12 23 -39 26 -59 4 -20
17 -56 29 -81 12 -25 28 -63 35 -85 18 -59 73 -199 80 -205 3 -3 17 -33 30
-68 14 -35 33 -71 44 -80 18 -16 18 -16 11 18 -4 19 -11 41 -16 50 -11 19 -58
125 -74 165 -37 93 -89 236 -129 354 -25 74 -52 141 -59 150 -8 9 -18 30 -21
46 -8 33 -29 83 -53 130 -8 17 -23 57 -33 90 -10 33 -31 89 -48 125 -17 36
-34 78 -38 94 l-7 28 84 -7 c126 -10 167 14 217 125 13 30 35 79 49 108 13 29
22 65 21 80 -2 17 1 26 10 25 6 -2 13 3 14 10 0 6 2 17 3 22 2 6 3 16 4 23 0
7 6 10 11 7 16 -10 50 76 70 177 10 49 24 96 31 104 9 11 8 14 -4 14 -17 0
-18 -4 -38 -90 -14 -65 -35 -116 -49 -125 -6 -4 -20 15 -33 44 -12 28 -27 51
-33 51 -13 0 -24 -32 -24 -74 0 -29 -1 -29 -16 -10 -15 18 -15 18 -9 -8 3 -16
1 -28 -5 -28 -5 0 -10 6 -10 14 0 7 -7 20 -16 27 -15 12 -16 11 -9 -11 4 -14
12 -27 17 -28 5 -2 4 -9 -2 -17 -7 -9 -4 -19 10 -38 20 -26 20 -26 1 -36 -26
-15 -114 -14 -163 1 -45 13 -126 81 -148 124 -8 16 -19 33 -25 37 -6 5 -3 6 8
3 13 -4 19 1 24 24 6 34 10 35 77 15 54 -17 70 -13 40 10 -17 13 -17 14 -1 15
11 0 17 8 17 25 0 20 5 25 24 25 29 0 40 -24 20 -41 -8 -7 -13 -18 -10 -25 3
-8 -1 -17 -9 -22 -12 -6 -4 -16 34 -44 42 -32 48 -34 43 -16 -4 17 -2 20 11
15 11 -4 14 -2 11 8 -3 7 -12 16 -20 19 -8 3 -14 9 -14 13 0 13 59 33 76 26
29 -11 64 6 64 32 0 13 -4 27 -10 30 -5 3 -10 17 -10 31 0 21 -4 24 -40 24
-23 0 -40 -5 -40 -11 0 -8 -4 -8 -13 -1 -15 13 -279 15 -287 3 -8 -14 -65 -18
-63 -4 2 9 -51 12 -203 13 -113 0 -204 -3 -201 -7 47 -90 56 -163 25 -197 -9
-10 -15 -22 -13 -26 5 -8 -41 -43 -48 -38 -5 4 -33 -26 -40 -42 -4 -12 -6 -11
-6 3 -1 17 -21 25 -21 9 0 -29 -98 18 -135 64 -16 21 -35 42 -40 48 -12 13
-16 66 -5 66 4 0 13 -15 20 -32 19 -48 36 -58 71 -46 37 13 59 5 59 -22 l0
-20 37 20 c27 14 40 17 50 8 18 -15 17 6 -2 35 -14 22 -13 24 20 41 38 21 49
39 36 64 -5 9 -15 30 -22 45 -7 16 -15 24 -17 18 -2 -6 -11 -11 -20 -11 -15
-1 -15 -2 1 -14 10 -8 15 -20 11 -30 -8 -22 -35 -20 -41 3 -3 12 -13 19 -24
18 -22 -2 -24 -10 -6 -26 9 -7 14 -34 14 -71 l1 -60 -39 42 c-21 24 -38 53
-39 65 0 16 -6 21 -20 20 -14 -1 -19 -6 -14 -17 17 -41 16 -50 -5 -50 -13 0
-25 9 -31 23 -5 12 -9 18 -9 13 -1 -4 -9 2 -20 15 -20 25 -14 49 19 76 12 10
-5 12 -88 13 -102 0 -103 0 -96 -22z m1147 -21 c10 -11 15 -27 12 -34 -3 -8
-5 -21 -5 -29 0 -8 -5 -14 -10 -14 -12 0 -10 32 3 41 13 9 -29 49 -52 49 -13
0 -19 4 -16 10 9 15 47 2 68 -23z m47 -7 c0 -5 -2 -10 -4 -10 -3 0 -8 5 -11
10 -3 6 -1 10 4 10 6 0 11 -4 11 -10z m-560 -24 c0 -8 -4 -18 -10 -21 -5 -3
-10 3 -10 14 0 12 5 21 10 21 6 0 10 -6 10 -14z m39 -33 c10 -19 9 -22 -4 -17
-9 4 -22 -1 -30 -12 -7 -11 -16 -16 -20 -12 -4 3 3 16 14 27 12 12 21 26 21
33 0 14 4 10 19 -19z m241 -13 c0 -5 -7 -7 -15 -4 -8 4 -15 8 -15 10 0 2 7 4
15 4 8 0 15 -4 15 -10z m-250 -90 c9 0 9 -4 2 -12 -5 -7 -12 -24 -15 -38 l-4
-25 -2 26 c0 15 -8 32 -16 39 -8 7 -15 19 -15 28 0 13 2 13 18 -1 10 -10 24
-17 32 -17z m-50 -41 c0 -5 -4 -9 -10 -9 -5 0 -10 7 -10 16 0 8 5 12 10 9 6
-3 10 -10 10 -16z m658 -11 c18 -18 15 -28 -8 -28 -13 0 -20 7 -20 20 0 23 10
26 28 8z m99 -10 c-3 -8 -6 -5 -6 6 -1 11 2 17 5 13 3 -3 4 -12 1 -19z m-633
-3 c-4 -9 0 -15 10 -15 9 0 16 -4 16 -9 0 -6 -18 -9 -40 -8 -43 1 -52 12 -20
22 11 3 20 11 20 16 0 5 4 9 10 9 5 0 7 -7 4 -15z m4 -63 c2 -7 -3 -12 -12
-12 -9 0 -16 7 -16 16 0 17 22 14 28 -4z m552 -22 c0 -5 -7 -10 -15 -10 -8 0
-15 5 -15 10 0 6 7 10 15 10 8 0 15 -4 15 -10z m-882 -18 c2 -7 -6 -12 -17
-12 -21 0 -27 11 -14 24 9 9 26 2 31 -12z m-138 -13 c0 -5 -10 -9 -21 -9 -18
0 -19 2 -9 15 12 15 30 12 30 -6z m105 -19 c3 -5 1 -10 -4 -10 -6 0 -11 5 -11
10 0 6 2 10 4 10 3 0 8 -4 11 -10z m-95 -7 c0 -5 14 -9 31 -10 30 -2 96 -36
112 -57 4 -6 6 -25 3 -43 -3 -22 1 -36 12 -45 13 -11 15 -11 9 4 -5 13 -2 17
12 15 25 -4 51 -26 51 -43 0 -24 -18 -15 -26 14 -5 20 -8 23 -11 10 -3 -10
-13 -18 -24 -18 -10 0 -19 -4 -19 -9 0 -5 -9 -11 -21 -14 -17 -5 -20 -2 -16
15 4 14 0 22 -14 25 -10 3 -16 9 -13 14 3 5 -2 6 -10 3 -24 -9 -58 14 -51 36
3 10 1 21 -5 25 -5 3 -10 1 -10 -4 0 -6 -4 -11 -10 -11 -5 0 -10 16 -10 35 0
53 -20 42 -21 -12 -2 -33 -3 -39 -6 -19 -7 44 6 96 22 96 8 0 15 -3 15 -7z
m200 -95 c0 -5 -9 -8 -20 -8 -20 0 -25 15 -13 45 5 15 8 14 19 -6 7 -13 13
-27 14 -31z m-250 -63 c0 -8 -4 -15 -10 -15 -5 0 -10 7 -10 15 0 8 5 15 10 15
6 0 10 -7 10 -15z m40 5 c0 -5 -2 -10 -4 -10 -3 0 -8 5 -11 10 -3 6 -1 10 4
10 6 0 11 -4 11 -10z m37 4 c-3 -3 -12 -4 -19 -1 -8 3 -5 6 6 6 11 1 17 -2 13
-5z m-17 -39 c7 -9 10 -18 7 -22 -8 -7 -37 15 -37 28 0 14 16 11 30 -6z m263
-4 c5 -22 -1 -33 -14 -25 -12 7 -12 44 0 44 5 0 11 -9 14 -19z m-283 -31 c0
-5 -8 -10 -17 -10 -15 0 -16 2 -3 10 19 12 20 12 20 0z m665 -70 c-3 -6 -1
-10 4 -10 6 0 11 -4 11 -10 0 -14 -28 -12 -32 2 -3 7 -2 23 0 36 4 21 6 22 14
8 5 -9 6 -21 3 -26z m-385 -420 c0 -5 -4 -10 -10 -10 -5 0 -10 5 -10 10 0 6 5
10 10 10 6 0 10 -4 10 -10z m-90 -24 c0 -3 -4 -8 -10 -11 -5 -3 -10 -1 -10 4
0 6 5 11 10 11 6 0 10 -2 10 -4z"/>
<path d="M4160 9150 c0 -5 5 -10 11 -10 5 0 7 5 4 10 -3 6 -8 10 -11 10 -2 0
-4 -4 -4 -10z"/>
<path d="M4195 9130 c3 -5 8 -10 11 -10 2 0 4 5 4 10 0 6 -5 10 -11 10 -5 0
-7 -4 -4 -10z"/>
<path d="M4170 9070 c0 -5 5 -10 11 -10 5 0 7 5 4 10 -3 6 -8 10 -11 10 -2 0
-4 -4 -4 -10z"/>
<path d="M4230 9051 c0 -6 4 -13 10 -16 6 -3 7 1 4 9 -7 18 -14 21 -14 7z"/>
<path d="M9313 8793 c1 -643 3 -813 14 -833 16 -30 16 -40 3 -40 -5 0 -10 10
-10 22 0 14 -4 18 -9 12 -5 -5 -10 -40 -11 -79 -2 -102 -2 -103 15 -78 8 12
12 29 8 39 -4 12 -3 15 5 10 8 -5 12 1 12 18 0 21 5 26 24 26 32 0 38 -12 30
-55 -5 -28 -11 -35 -30 -35 -15 0 -24 -6 -24 -16 0 -8 -4 -12 -10 -9 -5 3 -10
2 -10 -4 0 -5 -8 -12 -17 -14 -14 -4 -13 -5 4 -6 12 0 28 6 37 14 8 8 21 15
30 15 22 0 31 -21 14 -34 -8 -6 -20 -20 -27 -31 -11 -18 -12 -18 -7 -1 6 17 5
18 -16 3 -13 -8 -22 -20 -21 -26 2 -6 -3 -8 -10 -5 -10 4 -14 -10 -15 -53 0
-32 2 -51 5 -43 15 36 93 60 79 24 -3 -9 -6 -24 -6 -35 0 -12 -5 -16 -14 -13
-8 3 -17 1 -21 -5 -3 -6 1 -14 9 -17 24 -9 8 -26 -17 -18 -12 3 -19 3 -15 -1
4 -4 20 -9 36 -11 26 -3 30 0 36 27 4 20 10 28 17 23 9 -5 10 2 6 25 -4 20 -3
30 3 26 6 -3 10 -2 10 4 0 5 -8 15 -17 21 -16 10 -16 11 4 7 15 -3 20 -1 16 9
-3 8 0 14 7 14 6 0 8 5 3 13 -14 21 -9 61 10 79 9 10 17 32 17 48 0 17 5 30
10 30 6 0 10 -4 10 -10 0 -5 5 -10 10 -10 7 0 10 303 10 890 l0 890 -94 0 -94
0 1 -807z m47 509 c0 -9 -9 -23 -21 -30 -19 -12 -20 -12 -14 10 6 19 22 37 33
38 1 0 2 -8 2 -18z m55 -1622 c3 -5 1 -10 -4 -10 -6 0 -11 5 -11 10 0 6 2 10
4 10 3 0 8 -4 11 -10z m-40 -30 c-3 -5 -10 -10 -16 -10 -5 0 -9 5 -9 10 0 6 7
10 16 10 8 0 12 -4 9 -10z"/>
<path d="M5190 9563 c0 -15 -6 -23 -17 -23 -13 0 -14 -3 -5 -12 7 -7 12 -21
12 -32 0 -19 1 -19 20 2 24 25 25 41 5 68 -14 19 -14 18 -15 -3z"/>
<path d="M7290 9561 c-48 -15 -108 -51 -129 -77 -32 -40 -68 -124 -85 -195
-60 -250 -104 -493 -109 -604 -4 -74 -10 -121 -17 -123 -8 -3 -7 -8 1 -18 10
-12 9 -18 -3 -31 -14 -14 -17 -13 -22 5 -8 23 -32 36 -41 21 -4 -5 1 -12 9
-15 9 -3 16 -14 16 -24 0 -16 -6 -18 -56 -13 -56 6 -56 6 -50 -18 5 -14 4 -19
-1 -12 -6 9 -18 10 -38 4 l-30 -9 27 -1 c29 -1 45 -16 25 -24 -19 -7 -20 -72
-2 -87 13 -11 13 -15 3 -21 -12 -8 -18 -51 -19 -136 0 -21 -6 -33 -18 -36 -13
-3 -20 -18 -24 -51 -4 -25 -9 -58 -13 -73 -4 -22 -3 -25 5 -13 9 12 11 11 11
-7 0 -13 -4 -23 -10 -23 -14 0 -13 -37 1 -46 7 -4 9 -23 5 -50 -3 -27 -2 -44
4 -44 6 0 15 -12 20 -26 6 -14 19 -28 30 -31 11 -3 20 -12 20 -21 0 -34 24
-82 41 -82 10 0 24 -9 31 -19 7 -10 30 -26 51 -34 23 -10 37 -23 37 -34 1 -17
1 -17 14 0 8 11 17 14 20 8 4 -5 2 -12 -4 -16 -5 -3 -10 -14 -10 -23 0 -12 3
-13 12 -4 21 21 39 14 32 -12 -4 -16 -1 -25 10 -29 9 -4 16 -14 15 -24 0 -16
-1 -15 -9 2 -7 18 -9 18 -15 3 -4 -9 -4 -22 0 -28 11 -18 46 20 39 42 -3 12 0
18 10 18 10 0 13 -6 10 -15 -9 -22 10 -18 32 6 44 49 99 56 74 10 -12 -23 -13
-31 -2 -31 12 0 31 49 21 56 -16 9 -10 24 11 24 24 0 40 -28 40 -69 0 -31 16
-43 22 -17 2 11 14 9 55 -9 67 -30 113 -103 113 -180 -1 -50 -17 -85 -39 -85
-16 0 -14 -15 4 -30 9 -8 26 -10 42 -6 65 16 83 18 83 8 0 -6 -4 -14 -10 -17
-5 -3 -10 -1 -10 4 0 6 -7 11 -16 11 -9 0 -14 -7 -12 -16 2 -11 16 -18 41 -20
34 -3 37 -1 32 16 -7 21 2 25 20 12 15 -10 16 -52 2 -47 -7 3 -20 -6 -29 -19
-17 -24 -17 -24 17 -24 19 0 36 4 36 9 1 5 2 12 4 17 15 55 18 59 35 55 20 -5
38 -95 20 -101 -5 -2 -10 -16 -9 -30 0 -27 0 -27 11 -4 6 12 17 22 24 22 14 0
20 -27 28 -122 6 -71 14 -88 33 -63 7 11 13 26 12 34 0 12 -3 10 -9 -4 -7 -16
-9 -13 -9 16 -1 21 5 42 14 49 12 10 13 16 4 27 -9 10 -9 20 0 39 6 15 9 35 5
46 -4 15 -2 19 7 16 8 -3 16 -13 17 -22 4 -20 38 -57 48 -53 4 1 10 -8 15 -20
5 -14 5 -23 -1 -23 -6 0 -10 6 -10 13 0 8 -4 7 -10 -3 -12 -18 -13 -31 -2 -28
15 6 62 -41 62 -61 0 -12 7 -24 15 -27 8 -4 15 -12 15 -19 0 -7 4 -15 8 -17
13 -5 52 -87 52 -108 0 -22 20 -72 33 -81 11 -8 57 -138 57 -161 0 -10 5 -18
11 -18 7 0 9 10 5 28 -3 15 -9 48 -12 75 -6 39 -4 47 10 47 22 0 20 12 -3 27
-17 11 -20 9 -24 -10 -4 -21 -4 -21 -6 -1 0 11 -10 29 -21 39 -24 22 -28 85
-5 85 8 0 15 -7 15 -16 0 -8 8 -23 17 -32 16 -16 16 -16 10 1 -3 9 -2 17 3 17
6 0 10 5 10 11 0 5 -4 8 -8 5 -5 -3 -16 4 -25 14 -20 24 -7 33 29 20 23 -9 25
-9 15 4 -9 11 -9 15 1 20 7 3 1 3 -14 0 -24 -5 -28 -3 -28 15 0 12 5 21 10 21
6 0 10 10 10 21 0 21 -1 20 -21 -5 -22 -28 -44 -25 -36 5 6 23 -2 24 -29 4
-16 -12 -17 -14 -3 -15 13 0 29 -19 29 -34 0 -10 -36 0 -50 14 -28 28 -30 47
-6 69 19 18 33 21 75 19 28 -2 51 -8 51 -14 0 -6 8 -18 18 -27 17 -15 19 -15
31 2 13 18 16 17 75 -3 33 -12 86 -33 116 -48 67 -31 152 -52 183 -44 50 12
68 116 22 124 -11 2 -29 13 -39 25 -19 20 -20 20 -27 1 -5 -14 1 -26 27 -48
29 -24 33 -31 22 -44 -10 -12 -10 -14 0 -8 7 4 12 1 12 -8 0 -23 -37 -20 -50
3 -7 14 -7 20 2 23 6 2 8 10 4 16 -12 19 -26 14 -26 -9 0 -15 -4 -19 -16 -15
-9 4 -23 1 -30 -5 -10 -8 -19 -7 -36 5 -12 9 -30 16 -38 16 -20 0 -49 72 -31
78 6 2 11 8 11 13 0 15 -22 10 -36 -8 -12 -15 -13 -15 -8 -2 3 9 -1 19 -9 22
-9 3 -18 20 -22 37 -4 17 -13 43 -21 58 -17 32 -17 42 -4 42 6 0 14 -10 19
-23 12 -31 71 -76 124 -94 10 -3 16 -11 13 -18 -3 -8 10 -14 37 -18 49 -7 55
-4 33 19 -11 10 -13 20 -7 28 5 6 10 20 12 30 4 19 70 46 115 46 27 0 55 -62
47 -103 -8 -41 5 -32 27 19 14 31 20 66 19 108 -1 33 1 68 2 76 3 10 -11 17
-51 24 -30 5 -59 16 -63 23 -5 8 -18 18 -30 23 -21 8 -20 9 6 9 15 1 27 6 27
11 0 6 5 10 11 10 8 0 8 -5 -1 -15 -20 -24 -5 -47 27 -39 16 4 31 11 34 16 3
5 13 6 23 2 11 -4 29 2 48 16 30 22 32 22 45 5 12 -18 13 -18 13 1 0 14 17 32
49 53 28 17 53 41 56 52 9 26 -14 94 -27 81 -6 -6 -6 -18 2 -32 9 -18 9 -28 0
-45 -15 -28 -92 -73 -98 -57 -2 6 -10 8 -18 5 -7 -3 -17 2 -20 11 -3 9 -14 16
-23 16 -14 0 -14 2 -1 10 17 11 7 21 -82 82 -50 35 -61 63 -29 73 12 4 18 12
14 21 -4 11 4 14 32 14 32 0 36 2 25 15 -10 12 -10 15 3 15 9 0 19 -4 22 -10
3 -5 16 -10 28 -10 25 -1 60 -24 50 -33 -3 -4 -2 -7 3 -7 16 0 31 14 32 30 2
43 10 72 22 83 10 10 12 9 7 -5 -4 -10 -2 -18 4 -18 8 0 9 19 4 58 -10 83 -15
102 -31 102 -8 0 -14 6 -14 13 -1 7 -7 4 -15 -7 -8 -10 -12 -23 -9 -28 3 -5 3
-21 -1 -36 -5 -19 -9 -22 -15 -12 -6 10 -14 7 -34 -16 -29 -34 -32 -44 -11
-44 18 0 19 -12 3 -28 -15 -15 -38 -16 -38 -1 0 6 7 8 16 5 14 -5 15 -4 5 8
-11 13 -19 12 -59 -9 -43 -22 -56 -24 -147 -20 -92 4 -107 8 -181 44 -76 37
-93 54 -94 92 0 8 69 24 93 21 20 -2 23 14 5 22 -7 2 -4 4 7 3 11 -1 57 15
102 37 l82 39 -14 27 c-11 20 -11 30 -2 39 14 14 30 15 22 1 -3 -5 -2 -10 3
-10 5 0 12 -9 15 -20 5 -20 5 -20 54 -1 84 33 103 44 103 57 0 17 -32 34 -69
37 -16 1 -27 6 -24 11 4 5 -11 6 -33 2 -28 -5 -35 -4 -24 3 15 10 11 13 -20
15 -8 1 -15 5 -15 10 0 4 24 10 53 11 37 2 52 -1 52 -10 0 -7 25 -23 56 -35
55 -23 57 -23 90 -5 39 21 70 52 61 61 -4 4 -14 1 -23 -7 -10 -8 -19 -13 -21
-11 -1 1 -16 2 -33 2 -21 0 -28 -4 -24 -14 5 -14 -22 -26 -44 -18 -9 3 -6 10
9 23 19 16 19 19 5 19 -20 0 -33 12 -60 54 -18 28 -19 28 -32 11 -8 -10 -17
-15 -21 -11 -5 4 1 14 11 22 14 10 20 27 20 66 1 29 8 68 16 86 15 31 30 43
30 21 0 -6 8 -8 19 -4 38 12 100 -90 109 -177 3 -32 9 -48 18 -48 20 0 18 9
-25 117 -66 167 -74 183 -83 177 -15 -10 -59 18 -69 43 -11 28 -39 30 -39 3 0
-11 -4 -20 -10 -20 -5 0 -10 -7 -10 -15 0 -19 -17 -20 -22 -1 -3 13 -6 13 -22
0 -19 -14 -19 -14 1 -14 17 0 20 -6 18 -30 -3 -38 -9 -44 -25 -25 -12 14 -15
14 -31 -1 -23 -21 -24 -11 -3 22 20 29 11 43 -13 22 -10 -8 -40 -23 -68 -33
-27 -10 -61 -25 -75 -35 -14 -9 -63 -31 -110 -49 -46 -18 -90 -41 -97 -50 -10
-12 -15 -13 -21 -4 -6 10 -17 10 -42 3 -19 -6 -51 -10 -71 -10 -43 0 -51 -7
-39 -30 7 -13 5 -22 -7 -31 -15 -12 -16 -12 -10 4 4 11 2 17 -8 17 -8 0 -15 5
-15 11 0 6 -8 8 -19 4 -11 -3 -22 -2 -25 3 -5 9 103 52 140 56 11 1 26 6 33
10 7 4 15 5 18 2 3 -3 13 4 22 14 14 18 124 75 236 125 112 49 135 60 135 67
0 5 7 8 15 8 8 0 15 4 15 9 0 12 -105 -32 -484 -201 -49 -22 -126 -51 -170
-64 -45 -14 -96 -32 -114 -40 -29 -12 -36 -12 -62 1 -38 20 -40 19 -40 -10 0
-14 -8 -29 -20 -35 -31 -17 -25 -33 10 -25 23 5 30 3 30 -8 0 -26 30 -29 40
-4 8 20 9 19 9 -10 1 -17 -4 -35 -10 -38 -6 -4 -7 -19 -4 -36 4 -16 3 -29 -2
-29 -18 0 -74 70 -98 123 -22 46 -25 65 -19 102 3 25 10 48 15 51 5 3 9 12 9
21 0 8 35 52 78 97 82 87 112 146 112 219 0 63 -64 129 -125 131 -13 1 -21 9
-23 24 -5 31 28 29 58 -3 13 -14 28 -25 33 -25 5 0 18 -10 28 -22 l19 -21 0
24 c0 13 -5 44 -11 69 -13 57 -17 159 -6 163 12 4 20 117 8 117 -5 0 -12 -9
-16 -20 -6 -18 -8 -19 -35 -5 -28 14 -28 14 -36 -23 -4 -20 -8 -76 -8 -124 -1
-47 -4 -89 -7 -92 -3 -4 -19 -7 -35 -7 -24 0 -257 18 -260 20 0 1 -14 26 -30
57 -37 71 -82 121 -116 128 -24 5 -27 3 -25 -20 1 -15 -4 -29 -11 -32 -11 -3
-12 0 -3 17 10 17 9 21 -4 21 -25 0 -1 36 35 52 25 10 30 17 25 36 -3 12 -1
22 5 22 16 0 12 21 -7 35 -14 11 -14 15 -2 32 50 70 142 113 243 113 56 1 59
2 37 14 -18 10 -20 15 -10 19 8 3 0 6 -18 6 -17 1 -34 -5 -36 -11 -4 -10 -8
-10 -14 -2 -19 27 -166 -11 -189 -47 -7 -12 -44 -12 -44 0 0 5 6 12 13 15 6 4
2 4 -9 2 -56 -10 -56 38 0 94 38 38 52 78 17 46 -19 -18 -20 -17 -15 21 10 83
28 113 98 158 14 9 29 14 35 11 5 -3 11 -1 13 4 2 6 20 15 39 19 38 9 60 2
126 -38 18 -11 30 -15 27 -8 -2 7 -24 24 -48 40 -44 27 -86 33 -136 18z m-202
-396 c0 -14 -4 -25 -8 -25 -4 0 -10 -10 -13 -22 -4 -12 -9 -19 -13 -15 -8 8
16 87 26 87 4 0 8 -11 8 -25z m12 -50 c0 -14 -41 -85 -49 -85 -4 0 -6 11 -3
25 2 14 8 25 12 25 5 0 12 9 15 20 6 18 25 29 25 15z m66 -231 c-3 -9 -6 -18
-6 -20 0 -3 -4 -3 -10 1 -11 7 -2 35 12 35 6 0 7 -7 4 -16z m-97 -70 c-13 -25
-29 -32 -29 -14 0 6 8 27 17 48 15 34 17 35 21 13 2 -13 -2 -35 -9 -47z m143
13 c-9 -35 -44 -79 -56 -67 -6 6 -5 15 4 25 10 12 10 15 -5 15 -9 0 -15 6 -12
13 2 6 13 11 24 9 14 -2 22 4 26 19 3 11 10 18 15 15 6 -3 8 -16 4 -29z m-132
-63 c0 -8 -5 -12 -10 -9 -6 4 -8 11 -5 16 9 14 15 11 15 -7z m40 -3 c0 -11 6
-21 12 -23 8 -3 2 -15 -17 -32 -18 -17 -31 -23 -33 -16 -3 7 1 17 7 23 6 6 11
24 11 39 0 15 5 28 10 28 6 0 10 -9 10 -19z m-60 -31 c4 -27 0 -50 -8 -50 -4
0 -9 19 -11 43 -1 27 1 38 8 32 5 -5 10 -17 11 -25z m446 -45 c3 -7 -6 -29
-20 -48 -14 -18 -37 -59 -51 -90 -13 -31 -27 -57 -30 -57 -8 0 -95 178 -95
195 0 22 188 22 196 0z m-239 -11 c-3 -3 -12 -4 -19 -1 -8 3 -5 6 6 6 11 1 17
-2 13 -5z m-42 -54 l4 -44 -21 32 c-11 18 -17 39 -14 48 11 29 28 9 31 -36z
m131 -168 c5 -18 9 -21 16 -10 6 9 8 4 6 -16 -4 -39 -30 -41 -57 -5 -17 23
-19 33 -11 48 5 11 7 28 4 38 -4 13 0 11 15 -7 12 -14 24 -36 27 -48z m-429 6
c-3 -8 -6 -5 -6 6 -1 11 2 17 5 13 3 -3 4 -12 1 -19z m1608 -137 c-3 -6 -11
-11 -16 -11 -5 0 -4 6 3 14 14 16 24 13 13 -3z m60 -1 c-3 -5 -11 -10 -16 -10
-6 0 -7 5 -4 10 3 6 11 10 16 10 6 0 7 -4 4 -10z m-1305 -19 c0 -10 -24 -21
-43 -21 -7 0 -3 7 7 15 22 17 36 19 36 6z m1254 -46 c-9 -14 -20 -25 -24 -25
-10 0 -19 -47 -13 -71 3 -10 9 -16 14 -13 5 3 9 1 9 -5 0 -5 -5 -13 -11 -17
-6 -3 -9 -15 -6 -25 3 -11 -1 -26 -10 -34 -13 -13 -12 -15 3 -15 10 0 15 -3
11 -6 -3 -4 -18 -3 -32 0 -22 6 -25 9 -15 21 10 12 9 15 -8 15 -25 0 -38 18
-24 32 6 6 12 6 16 -1 12 -20 28 -12 21 10 -5 15 -4 19 4 15 6 -4 11 -2 11 3
0 14 -37 14 -45 1 -9 -15 -25 -12 -32 6 -3 9 0 20 7 24 11 7 10 13 -4 34 -14
23 -15 26 -1 26 8 0 24 -5 34 -11 14 -10 24 -7 49 11 18 13 32 30 32 37 0 7 7
13 15 13 14 0 13 -3 -1 -25z m-199 -15 c-3 -5 -14 -10 -23 -9 -14 0 -13 2 3 9
27 11 27 11 20 0z m-1184 -51 c5 -11 7 -24 4 -29 -3 -6 -1 -10 4 -10 9 0 9
-28 1 -50 -2 -3 -2 -9 -1 -13 2 -12 -26 -62 -42 -76 -12 -10 -15 -6 -19 21 -3
18 -7 40 -9 48 -3 10 5 16 24 18 16 2 27 6 25 10 -2 4 -12 23 -22 44 -21 40
-16 71 9 62 9 -4 20 -15 26 -25z m1219 22 c0 -16 -43 -41 -69 -41 -18 0 -22 3
-14 11 29 29 83 48 83 30z m-1300 -25 c0 -3 -4 -8 -10 -11 -5 -3 -10 -1 -10 4
0 6 5 11 10 11 6 0 10 -2 10 -4z m1312 -48 c-3 -12 -7 -17 -10 -10 -2 6 -10
12 -18 12 -14 0 -19 21 -8 33 4 3 15 2 24 -3 13 -7 16 -17 12 -32z m-1032 12
c0 -13 -5 -18 -15 -14 -8 4 -15 12 -15 20 0 8 7 14 15 14 8 0 15 -9 15 -20z
m-294 -35 c-14 -13 -26 -29 -26 -34 0 -6 -11 -13 -25 -17 -38 -9 -33 -38 5
-30 22 4 30 2 30 -9 0 -8 -6 -15 -14 -15 -9 0 -12 -7 -9 -20 14 -52 -63 -20
-101 42 -22 36 -20 64 7 83 20 14 22 14 25 0 4 -18 14 -19 29 -4 10 10 53 22
97 28 5 0 -3 -10 -18 -24z m1222 -5 c-2 -19 3 -35 12 -41 11 -7 5 -8 -20 -3
-50 10 -85 26 -41 19 33 -5 33 -4 28 25 -5 23 -3 30 9 30 11 0 15 -8 12 -30z
m-203 0 c3 -5 1 -10 -4 -10 -6 0 -11 5 -11 10 0 6 2 10 4 10 3 0 8 -4 11 -10z
m255 2 c0 -13 -12 -22 -22 -16 -10 6 -1 24 13 24 5 0 9 -4 9 -8z m-590 -22 c0
-5 6 -8 13 -6 33 11 77 15 77 7 0 -13 -43 -27 -77 -25 -85 4 -79 2 -57 19 22
17 44 19 44 5z m638 -57 c-10 -2 -28 -2 -40 0 -13 2 -5 4 17 4 22 1 32 -1 23
-4z m62 -13 c0 -5 -4 -10 -9 -10 -6 0 -13 5 -16 10 -3 6 1 10 9 10 9 0 16 -4
16 -10z m-390 -31 c0 -14 -17 -10 -23 5 -4 10 -1 13 9 9 7 -3 14 -9 14 -14z
m160 14 c-1 -12 -50 -45 -50 -34 0 23 14 41 31 41 10 0 19 -3 19 -7z m320 -53
c0 -5 -2 -10 -4 -10 -3 0 -8 5 -11 10 -3 6 -1 10 4 10 6 0 11 -4 11 -10z
m-115 -19 c8 -14 -6 -19 -42 -14 -18 3 -30 9 -27 14 7 12 61 12 69 0z m-761
-27 c9 -3 13 -10 10 -15 -8 -14 -21 -11 -28 6 -6 17 -4 18 18 9z m726 -25 c0
-5 -4 -9 -10 -9 -5 0 -10 7 -10 16 0 8 5 12 10 9 6 -3 10 -10 10 -16z m-922
-18 c33 -30 29 -48 -8 -36 -14 5 -20 2 -20 -9 0 -9 -7 -16 -15 -16 -8 0 -15 4
-15 9 0 5 7 11 15 15 8 3 15 10 15 16 0 5 -7 10 -15 10 -8 0 -15 9 -15 20 0
28 19 25 58 -9z m-88 10 c0 -5 -10 -12 -22 -15 -22 -6 -22 -7 -4 -21 11 -9 16
-20 12 -31 -7 -19 -16 -14 -20 13 -2 10 -10 18 -19 18 -26 0 -32 14 -11 30 21
16 64 20 64 6z m315 -1 c3 -5 1 -10 -4 -10 -6 0 -11 5 -11 10 0 6 2 10 4 10 3
0 8 -4 11 -10z m-28 -36 c17 -35 17 -36 -6 -55 -13 -10 -27 -19 -32 -19 -15 0
-10 20 6 26 8 4 12 11 8 17 -10 16 -11 67 -1 67 4 0 16 -16 25 -36z m773 21
c0 -8 -4 -15 -10 -15 -5 0 -10 7 -10 15 0 8 5 15 10 15 6 0 10 -7 10 -15z
m-886 -17 c-3 -13 -7 -23 -8 -23 0 0 -12 -6 -24 -13 -35 -20 -37 -8 -5 27 33
36 47 40 37 9z m206 -15 c0 -6 3 -20 6 -30 4 -11 -7 -4 -28 17 -19 19 -33 38
-31 42 5 10 53 -16 53 -29z m290 -7 c0 -3 -4 -8 -10 -11 -5 -3 -10 -1 -10 4 0
6 5 11 10 11 6 0 10 -2 10 -4z m-774 -38 c-3 -13 -6 -29 -6 -35 0 -7 -4 -13
-10 -13 -11 0 -13 30 -4 54 9 25 27 19 20 -6z m49 -18 c-3 -5 -11 -10 -16 -10
-6 0 -7 5 -4 10 3 6 11 10 16 10 6 0 7 -4 4 -10z m65 -60 c0 -5 -4 -10 -10
-10 -5 0 -10 5 -10 10 0 6 5 10 10 10 6 0 10 -4 10 -10z m590 -14 c0 -2 -7 -7
-16 -10 -8 -3 -12 -2 -9 4 6 10 25 14 25 6z m-621 -25 c11 -11 22 -17 25 -14
9 10 73 -52 68 -66 -3 -8 0 -11 6 -8 20 13 47 -49 31 -74 -6 -11 -14 -9 -38 9
-39 29 -42 28 -30 -8 6 -16 15 -28 19 -25 4 3 6 -5 3 -16 -6 -21 -7 -21 -20
-4 -7 11 -13 23 -13 29 0 5 -10 20 -22 33 -20 21 -20 23 -3 23 17 0 17 2 -3
23 -12 13 -22 28 -22 33 0 5 -9 15 -20 22 -20 12 -28 62 -10 62 6 0 19 -9 29
-19z m476 -47 c38 -58 42 -84 7 -40 -27 35 -44 34 -37 -1 6 -26 5 -27 -9 -9
-8 10 -19 15 -25 11 -17 -10 -13 43 5 70 9 14 18 25 20 25 2 0 20 -25 39 -56z
m893 39 c-10 -13 -10 -17 0 -20 19 -7 14 -22 -8 -20 -29 2 -28 52 1 54 18 2
19 0 7 -14z m-631 -34 l2 -34 -10 33 c-5 17 -12 32 -15 32 -4 0 -4 -7 0 -15 3
-9 0 -15 -10 -15 -12 0 -13 4 -4 21 16 29 35 18 37 -22z m-133 -5 c3 -8 2 -12
-4 -9 -6 3 -10 10 -10 16 0 14 7 11 14 -7z m-68 -11 c7 -10 14 -29 14 -43 0
-22 -2 -21 -20 13 -11 20 -20 39 -20 42 0 11 13 4 26 -12z m-609 -50 c-3 -10
-5 -2 -5 17 0 19 2 27 5 18 2 -10 2 -26 0 -35z m378 -23 c10 8 18 8 34 -2 25
-15 27 -50 5 -69 -14 -11 -16 -10 -13 6 3 24 -10 55 -22 55 -5 0 -9 -6 -9 -14
0 -9 -7 -12 -20 -9 -24 6 -25 8 -34 48 l-8 30 27 -29 c20 -22 29 -25 40 -16z
m399 15 c-4 -8 -8 -15 -10 -15 -2 0 -4 7 -4 15 0 8 4 15 10 15 5 0 7 -7 4 -15z
m430 7 c13 -7 -16 -22 -46 -22 -18 0 -28 5 -28 14 0 14 53 20 74 8z m-486 -39
c-6 -7 -17 -13 -25 -13 -11 0 -10 5 4 24 12 15 20 20 25 13 4 -6 2 -17 -4 -24z
m370 15 l23 -15 -30 -6 c-16 -3 -43 -2 -60 3 -16 4 -38 6 -49 4 -10 -3 -29 3
-41 14 -24 18 -24 18 56 17 54 -1 86 -6 101 -17z m-1001 -24 c-9 -9 -27 6 -27
22 0 13 2 13 16 -1 9 -9 14 -18 11 -21z m494 -5 c9 -17 13 -19 20 -8 8 12 11
12 19 -1 5 -8 10 -18 10 -22 0 -14 -60 -8 -98 8 l-37 16 30 14 c40 18 43 17
56 -7z m656 -4 c9 -25 -2 -27 -22 -5 -17 18 -17 20 -1 20 9 0 19 -7 23 -15z
m-42 -29 c18 -13 17 -14 -14 -21 -38 -8 -66 9 -41 25 21 13 33 12 55 -4z
m-803 -42 c2 -19 0 -37 -4 -40 -4 -3 -8 6 -8 20 0 14 -4 27 -10 31 -5 3 -7 12
-4 20 9 23 21 9 26 -31z m68 -3 c5 -19 5 -31 -1 -31 -5 0 -9 5 -9 10 0 6 -6
10 -14 10 -11 0 -12 5 -3 24 14 29 15 28 27 -13z m-180 -15 c0 -6 -7 -2 -15 8
-8 11 -15 25 -15 30 0 6 7 2 15 -8 8 -11 15 -25 15 -30z m474 -55 c-6 -6 -54
49 -54 62 0 5 13 -6 30 -24 16 -18 27 -35 24 -38z m-464 -12 c0 -10 5 -21 11
-25 6 -3 9 -15 6 -25 -3 -10 -1 -22 4 -25 5 -3 9 -15 9 -27 0 -19 -2 -19 -14
-7 -8 8 -16 24 -18 35 -2 11 -7 23 -11 26 -5 3 -11 26 -14 50 -6 40 -5 43 10
30 10 -7 17 -22 17 -32z m153 29 c3 -8 -5 -14 -19 -14 -13 -1 -24 2 -24 8 0 5
4 7 9 3 5 -3 12 -1 16 5 8 13 12 13 18 -2z m112 2 c3 -5 1 -10 -4 -10 -6 0
-11 5 -11 10 0 6 2 10 4 10 3 0 8 -4 11 -10z m-89 -56 c-3 -8 -10 -14 -16 -14
-14 0 -13 26 3 51 12 20 12 20 15 -1 2 -12 1 -28 -2 -36z m875 47 c-7 -5 -17
-15 -22 -22 -6 -10 -9 -8 -9 9 0 16 6 22 23 22 16 0 18 -3 8 -9z m-535 -71
c21 -27 44 -50 51 -50 13 0 14 -1 18 -36 1 -12 5 -26 8 -31 13 -21 18 -117 7
-142 -6 -14 -21 -31 -35 -37 -58 -28 -124 20 -150 110 -15 52 -15 59 -1 81 21
32 55 40 101 25 20 -7 38 -10 40 -8 3 2 -12 26 -31 54 -66 92 -72 118 -8 34z
m464 46 c0 -3 -4 -8 -10 -11 -5 -3 -10 -1 -10 4 0 6 5 11 10 11 6 0 10 -2 10
-4z m-837 -28 c4 -12 4 -24 1 -27 -6 -7 -24 20 -24 37 0 21 17 13 23 -10z
m817 -4 c0 -2 -9 -4 -20 -4 -11 0 -20 4 -20 9 0 5 9 7 20 4 11 -3 20 -7 20 -9z
m133 7 c14 -2 7 -21 -9 -21 -8 0 -12 -4 -9 -10 11 -17 -7 -11 -21 8 -12 15
-15 15 -24 2 -5 -8 -7 -23 -4 -32 3 -10 1 -18 -5 -18 -6 0 -11 12 -11 26 0 19
-4 25 -14 21 -10 -4 -13 -1 -9 9 3 9 12 12 24 9 11 -4 19 -2 19 4 0 8 18 9 63
2z m-163 -31 c0 -5 -4 -10 -10 -10 -5 0 -10 5 -10 10 0 6 5 10 10 10 6 0 10
-4 10 -10z m-131 -11 c17 -6 31 -17 31 -25 0 -8 -2 -14 -5 -14 -14 0 -65 32
-65 40 0 12 0 12 39 -1z m-79 -8 c0 -11 -31 -24 -39 -16 -3 3 1 10 9 15 19 12
30 12 30 1z m-780 -36 c0 -8 -4 -15 -10 -15 -5 0 -10 7 -10 15 0 8 5 15 10 15
6 0 10 -7 10 -15z m795 -5 c3 -5 4 -10 1 -10 -2 0 -12 -3 -20 -6 -12 -5 -15
-2 -10 10 7 18 20 21 29 6z m55 -11 c0 -5 -7 -9 -15 -9 -15 0 -20 12 -9 23 8
8 24 -1 24 -14z m-531 -24 c34 -21 71 -75 71 -104 0 -17 -23 -61 -31 -61 -4 0
-16 17 -26 37 -12 27 -14 38 -5 41 7 2 17 12 22 21 7 14 3 24 -17 42 l-25 24
6 -22 c5 -17 3 -23 -7 -23 -9 0 -18 6 -21 13 -5 10 -7 10 -12 0 -10 -22 -37
-15 -31 7 3 11 1 23 -4 26 -5 3 -9 12 -9 21 0 20 38 11 89 -22z m598 -52 c-18
-18 -21 -14 -30 39 -6 39 25 43 37 5 7 -21 5 -32 -7 -44z m-210 22 c-3 -45
-17 -45 -17 0 0 19 4 35 10 35 5 0 9 -16 7 -35z m173 16 c0 -12 -20 -25 -27
-18 -7 7 6 27 18 27 5 0 9 -4 9 -9z m-130 -11 c0 -5 -4 -10 -10 -10 -5 0 -10
5 -10 10 0 6 5 10 10 10 6 0 10 -4 10 -10z m133 -64 c24 3 26 1 16 -17 -5 -11
-23 -22 -39 -26 -16 -3 -27 -9 -24 -14 3 -5 -2 -6 -10 -3 -24 9 -28 34 -6 34
22 0 26 10 9 27 -6 6 -8 17 -4 23 6 9 11 7 19 -7 7 -13 20 -18 39 -17z m-95
12 c-7 -19 -38 -22 -38 -4 0 10 9 16 21 16 12 0 19 -5 17 -12z m-1 -44 c-3 -3
-12 -4 -19 -1 -8 3 -5 6 6 6 11 1 17 -2 13 -5z m-287 -283 c0 -28 -17 -35 -29
-12 -15 27 -14 31 9 31 13 0 20 -7 20 -19z"/>
<path d="M7380 7615 c0 -28 39 -62 51 -44 5 9 2 16 -11 21 -10 4 -23 15 -29
25 -10 17 -10 17 -11 -2z"/>
<path d="M8092 7143 c8 -10 18 -34 22 -53 l6 -34 -41 39 c-25 24 -39 33 -35
21 5 -16 3 -17 -20 -12 l-26 7 21 -30 c18 -24 26 -29 44 -22 15 6 25 4 33 -7
10 -14 13 -14 26 -1 8 8 13 20 10 27 -2 6 3 15 12 18 20 8 21 38 2 53 -11 10
-15 8 -18 -5 -3 -16 -4 -17 -20 -1 -22 22 -35 22 -16 0z"/>
<path d="M1600 9531 c0 -6 5 -13 10 -16 6 -3 10 1 10 9 0 9 -4 16 -10 16 -5 0
-10 -4 -10 -9z"/>
<path d="M1607 9446 c-4 -10 -1 -13 9 -9 15 6 19 23 5 23 -5 0 -11 -7 -14 -14z"/>
<path d="M5100 9440 c0 -11 2 -20 4 -20 2 0 6 9 9 20 3 11 1 20 -4 20 -5 0 -9
-9 -9 -20z"/>
<path d="M7166 9424 c-4 -9 -4 -19 -1 -22 2 -3 7 3 11 12 4 9 4 19 1 22 -2 3
-7 -3 -11 -12z"/>
<path d="M1555 9420 c-3 -5 1 -10 9 -10 9 0 16 5 16 10 0 6 -4 10 -9 10 -6 0
-13 -4 -16 -10z"/>
<path d="M7160 9370 c0 -5 5 -10 11 -10 5 0 7 5 4 10 -3 6 -8 10 -11 10 -2 0
-4 -4 -4 -10z"/>
<path d="M7190 9349 c0 -5 5 -7 10 -4 6 3 10 8 10 11 0 2 -4 4 -10 4 -5 0 -10
-5 -10 -11z"/>
<path d="M7498 9311 c12 -11 22 -26 22 -34 0 -8 10 -17 21 -20 14 -4 20 -11
16 -21 -4 -10 6 -28 27 -48 18 -18 37 -43 40 -55 4 -13 11 -23 15 -23 11 0 11
30 0 66 -10 33 -128 154 -150 154 -9 -1 -6 -7 9 -19z"/>
<path d="M7550 9320 c0 -5 7 -10 16 -10 8 0 12 5 9 10 -3 6 -10 10 -16 10 -5
0 -9 -4 -9 -10z"/>
<path d="M7136 9251 c-4 -7 -5 -15 -2 -18 9 -9 19 4 14 18 -4 11 -6 11 -12 0z"/>
<path d="M7498 9223 c7 -3 16 -2 19 1 4 3 -2 6 -13 5 -11 0 -14 -3 -6 -6z"/>
<path d="M7615 9076 c11 -8 24 -12 29 -8 5 3 1 9 -10 13 -31 12 -39 10 -19 -5z"/>
<path d="M4504 9027 c1 -33 -9 -38 -47 -22 -16 7 -17 5 -5 -21 22 -52 26 -55
65 -39 49 21 53 19 53 -15 0 -29 1 -29 20 -13 18 16 19 19 3 43 -9 14 -27 35
-40 47 -12 12 -23 26 -23 31 0 6 -6 12 -14 15 -10 4 -13 -3 -12 -26z"/>
<path d="M7150 8945 c0 -8 5 -15 10 -15 6 0 10 7 10 15 0 8 -4 15 -10 15 -5 0
-10 -7 -10 -15z"/>
<path d="M4200 8805 c0 -8 5 -15 10 -15 6 0 10 7 10 15 0 8 -4 15 -10 15 -5 0
-10 -7 -10 -15z"/>
<path d="M4660 8780 c0 -11 6 -20 13 -20 19 0 27 10 20 26 -8 21 -33 17 -33
-6z"/>
<path d="M4708 8698 c-14 -14 -15 -18 -4 -18 8 0 17 7 20 16 9 23 4 24 -16 2z"/>
<path d="M4313 8703 c-15 -5 -18 -33 -4 -33 8 0 25 30 19 35 -2 1 -9 0 -15 -2z"/>
<path d="M4247 8694 c-8 -8 1 -24 13 -24 4 0 10 7 14 15 5 15 -14 21 -27 9z"/>
<path d="M4507 8673 c-4 -3 -7 -11 -7 -17 0 -6 5 -5 12 2 6 6 9 14 7 17 -3 3
-9 2 -12 -2z"/>
<path d="M6921 8663 c7 -12 15 -20 18 -17 3 2 -3 12 -13 22 -17 16 -18 16 -5
-5z"/>
<path d="M4540 8650 c6 -11 12 -20 13 -20 2 0 3 9 3 20 0 11 -6 20 -13 20 -11
0 -11 -5 -3 -20z"/>
<path d="M4480 8645 c0 -18 19 -40 26 -32 4 4 0 15 -9 24 -9 10 -17 13 -17 8z"/>
<path d="M4670 8606 c0 -9 5 -16 10 -16 6 0 10 4 10 9 0 6 -4 13 -10 16 -5 3
-10 -1 -10 -9z"/>
<path d="M4270 8590 c0 -5 5 -10 10 -10 6 0 10 5 10 10 0 6 -4 10 -10 10 -5 0
-10 -4 -10 -10z"/>
<path d="M6927 8583 c-4 -3 -7 -11 -7 -17 0 -6 5 -5 12 2 6 6 9 14 7 17 -3 3
-9 2 -12 -2z"/>
<path d="M4556 8537 c3 -10 9 -15 12 -12 3 3 0 11 -7 18 -10 9 -11 8 -5 -6z"/>
<path d="M4327 8361 c3 -12 9 -21 14 -21 14 0 11 16 -5 29 -12 10 -13 8 -9 -8z"/>
<path d="M4390 8371 c0 -5 5 -13 10 -16 6 -3 10 -2 10 4 0 5 -4 13 -10 16 -5
3 -10 2 -10 -4z"/>
<path d="M4317 8315 c7 -36 33 -70 33 -42 0 9 -4 17 -8 17 -5 0 -13 12 -19 28
l-12 27 6 -30z"/>
<path d="M4720 8312 c0 -12 19 -26 26 -19 2 2 -2 10 -11 17 -9 8 -15 8 -15 2z"/>
<path d="M4360 8280 c1 -16 27 -56 34 -49 2 2 -5 18 -15 34 -11 17 -19 23 -19
15z"/>
<path d="M4354 8208 c7 -18 22 -53 34 -78 11 -25 37 -100 58 -167 22 -66 42
-119 46 -117 4 3 5 -2 2 -10 -3 -9 -1 -16 5 -16 6 0 8 -7 5 -15 -4 -9 0 -15
10 -15 9 0 16 -8 16 -17 0 -16 -2 -16 -11 -3 -9 12 -10 11 -4 -5 4 -11 14 -42
22 -70 16 -52 38 -98 62 -127 7 -10 11 -26 8 -38 -3 -11 -1 -20 4 -20 5 0 9
-6 9 -13 0 -7 7 -38 16 -68 16 -50 17 -52 24 -27 5 15 5 42 0 60 -14 60 -42
153 -50 163 -6 9 -28 65 -90 235 -55 153 -72 196 -82 207 -8 10 -6 13 6 13 22
0 20 22 -4 43 -11 9 -23 35 -26 56 -6 36 -8 39 -26 30 -16 -9 -20 -7 -25 10
-3 12 -9 21 -14 21 -5 0 -3 -15 5 -32z"/>
<path d="M8620 8237 c0 -19 35 -66 51 -70 21 -6 21 -6 2 16 -11 12 -23 30 -26
40 -5 14 -27 25 -27 14z"/>
<path d="M8672 8120 c-8 -14 -9 -20 -1 -20 7 0 9 -10 7 -25 -4 -16 -1 -25 8
-25 9 0 12 13 11 45 -2 50 -6 54 -25 25z"/>
<path d="M8743 7845 c0 -14 3 -22 8 -19 5 3 9 11 9 19 0 8 -4 16 -9 19 -5 3
-8 -5 -8 -19z"/>
<path d="M8220 7680 c0 -5 5 -10 10 -10 6 0 10 5 10 10 0 6 -4 10 -10 10 -5 0
-10 -4 -10 -10z"/>
<path d="M9300 7559 c0 -5 5 -7 10 -4 6 3 10 8 10 11 0 2 -4 4 -10 4 -5 0 -10
-5 -10 -11z"/>
<path d="M7221 7504 c0 -11 3 -14 6 -6 3 7 2 16 -1 19 -3 4 -6 -2 -5 -13z"/>
<path d="M8660 7510 c0 -5 5 -10 11 -10 6 0 19 -10 28 -22 10 -12 23 -18 29
-14 20 12 14 23 -22 40 -40 19 -46 20 -46 6z"/>
<path d="M8788 7513 c10 -4 10 -8 1 -19 -6 -8 -8 -14 -3 -15 5 0 17 -2 27 -4
9 -2 17 2 17 7 0 13 -31 38 -45 37 -5 0 -4 -3 3 -6z"/>
<path d="M8618 7491 c-30 -17 -37 -41 -13 -41 8 0 15 -4 15 -10 0 -5 7 -7 15
-3 9 3 14 11 12 17 -2 6 3 16 11 22 11 8 12 12 0 20 -9 8 -21 6 -40 -5z"/>
<path d="M9296 7488 c-10 -38 -7 -140 4 -133 6 3 10 21 11 38 0 27 3 22 19
-28 11 -33 20 -70 20 -83 0 -13 4 -21 10 -17 5 3 11 -24 13 -67 2 -58 3 -51 4
32 1 62 -2 97 -6 85 -7 -16 -10 -11 -15 25 -10 61 -10 79 -3 123 5 28 4 37 -7
37 -8 0 -21 3 -29 6 -9 3 -17 -3 -21 -18z"/>
<path d="M8755 7490 c3 -5 8 -10 11 -10 2 0 4 5 4 10 0 6 -5 10 -11 10 -5 0
-7 -4 -4 -10z"/>
<path d="M8670 7451 c0 -6 4 -12 9 -15 5 -3 7 -16 4 -27 -4 -16 -2 -20 8 -17
8 3 14 10 13 16 -1 7 -2 21 -2 32 -2 19 -32 29 -32 11z"/>
<path d="M8718 7413 c-7 -51 -1 -54 17 -10 18 45 18 47 1 47 -8 0 -16 -14 -18
-37z"/>
<path d="M7324 7426 c-3 -8 -12 -12 -20 -9 -16 6 -20 -22 -4 -32 6 -4 8 -12 4
-18 -3 -7 4 -1 15 12 12 13 21 32 21 42 0 22 -8 25 -16 5z"/>
<path d="M7361 7400 c0 -26 11 -45 42 -69 26 -21 21 4 -7 31 -13 13 -26 32
-29 43 -4 16 -5 15 -6 -5z"/>
<path d="M7247 7373 c-4 -3 -7 -29 -7 -57 0 -60 17 -51 21 11 3 42 -2 59 -14
46z"/>
<path d="M4591 7316 c11 -9 69 -15 64 -6 -3 6 -20 10 -37 10 -17 0 -29 -2 -27
-4z"/>
<path d="M9297 7300 c3 -11 7 -20 9 -20 2 0 4 9 4 20 0 11 -4 20 -9 20 -5 0
-7 -9 -4 -20z"/>
<path d="M9431 7265 c-2 -33 -3 -64 -2 -69 1 -5 -1 -16 -5 -25 -5 -13 -8 -11
-14 9 -6 19 -8 11 -8 -30 -1 -39 2 -49 8 -35 5 12 8 -31 7 -112 0 -73 2 -136
6 -140 4 -3 7 9 7 28 0 19 3 39 8 45 4 5 5 95 2 199 -3 105 -7 163 -9 130z"/>
<path d="M4380 7287 c-25 -12 -72 -30 -105 -40 -83 -26 -115 -40 -115 -53 0
-16 -44 -54 -63 -54 -9 0 -17 -4 -17 -9 0 -5 -20 -12 -44 -15 -25 -4 -56 -16
-69 -27 -14 -10 -30 -19 -36 -19 -13 0 -58 -27 -79 -48 -8 -7 -26 -19 -40 -26
-57 -30 -192 -191 -192 -230 0 -12 -14 -32 -32 -46 -17 -14 -39 -38 -50 -55
-10 -16 -18 -23 -18 -15 0 13 -2 13 -9 0 -6 -8 -8 -17 -5 -22 3 -4 -11 -18
-30 -30 -20 -13 -36 -28 -36 -33 0 -6 -9 -16 -20 -23 -11 -7 -20 -18 -20 -26
0 -7 -7 -19 -15 -26 -8 -7 -12 -16 -9 -21 5 -8 -19 -52 -43 -77 -8 -8 -10 -24
-7 -38 4 -15 0 -34 -10 -49 -9 -13 -16 -31 -16 -40 0 -8 -5 -15 -11 -15 -8 0
-7 -5 1 -15 11 -13 11 -20 0 -40 -7 -14 -17 -25 -22 -25 -4 0 -8 -5 -8 -11 0
-6 -11 -25 -23 -42 -13 -18 -30 -48 -37 -67 -8 -19 -24 -48 -37 -63 -13 -16
-23 -35 -23 -43 0 -18 -49 -91 -79 -118 -11 -11 -21 -25 -21 -33 0 -7 -6 -13
-13 -13 -16 0 -87 -84 -87 -103 0 -8 -7 -18 -15 -21 -9 -3 -28 -31 -42 -63
-22 -47 -28 -54 -34 -38 -8 24 -10 19 -34 -75 -22 -86 -21 -83 -28 -100 -3 -8
-8 -33 -12 -55 -4 -22 -10 -42 -14 -45 -9 -6 -41 -169 -47 -234 -2 -27 -10
-56 -18 -65 -8 -9 -15 -18 -15 -21 0 -3 -2 -12 -5 -20 -3 -8 -15 -46 -26 -85
-12 -38 -30 -98 -41 -133 -10 -34 -19 -76 -19 -92 0 -33 -16 -49 -23 -23 -2
10 -2 4 0 -13 2 -21 -1 -34 -11 -37 -8 -3 -17 -21 -21 -39 -4 -18 -11 -37 -15
-43 -18 -25 -43 -160 -47 -260 -3 -68 -10 -118 -19 -132 -8 -12 -13 -30 -12
-40 3 -20 -18 -98 -35 -128 -6 -11 -12 -67 -13 -125 -2 -58 -3 -105 -4 -105
-2 0 -8 -39 -12 -77 -1 -10 -6 -18 -10 -18 -15 0 -8 -28 9 -34 14 -6 14 -8 -3
-21 -17 -12 -20 -11 -26 3 -4 10 -7 12 -9 5 -1 -7 -3 -17 -4 -23 -1 -5 -3 -18
-5 -27 -1 -11 -3 -13 -7 -5 -2 6 -14 12 -24 12 -11 0 -32 15 -47 33 -15 17
-59 66 -99 107 -39 41 -102 113 -138 160 -36 47 -74 94 -82 105 -98 118 -276
347 -348 446 -49 68 -131 174 -181 235 -50 61 -112 142 -139 180 -78 113 -164
223 -251 325 -108 125 -184 225 -291 379 -48 69 -90 127 -93 130 -3 3 -26 32
-50 65 -25 33 -79 103 -121 155 -41 52 -90 118 -109 145 -64 92 -271 372 -332
449 -16 19 -18 19 -18 2 0 -10 81 -127 180 -260 164 -219 232 -307 388 -504
46 -59 210 -284 244 -336 12 -18 67 -85 78 -96 3 -3 21 -25 40 -50 19 -25 43
-54 52 -65 54 -63 140 -175 220 -287 50 -71 148 -199 217 -287 69 -87 168
-215 219 -284 51 -69 98 -132 105 -139 17 -17 257 -312 282 -347 11 -15 30
-38 43 -52 13 -13 37 -42 54 -64 17 -22 51 -56 74 -75 24 -19 41 -38 38 -42
-3 -4 2 -11 10 -14 9 -3 16 -12 16 -19 0 -7 7 -15 15 -19 20 -7 19 -51 -2 -73
-36 -36 -98 -197 -114 -295 -6 -38 -15 -68 -20 -68 -5 0 -9 7 -9 16 0 8 -5 12
-10 9 -12 -7 -3 -99 12 -128 13 -25 20 -87 13 -118 -6 -25 -10 -27 -78 -32
-108 -9 -163 -30 -260 -101 -95 -69 -142 -86 -179 -63 -13 8 -43 20 -68 27
-25 7 -50 20 -57 28 -18 22 -142 7 -228 -28 -97 -39 -114 -43 -130 -30 -18 15
-57 -4 -49 -24 10 -27 -28 -27 -211 -1 -16 2 -31 9 -33 14 -7 20 -63 11 -98
-15 -28 -22 -34 -33 -34 -63 0 -20 9 -54 21 -76 20 -37 20 -39 3 -52 -10 -7
-23 -13 -30 -13 -7 0 -59 -22 -116 -48 -85 -40 -112 -48 -155 -46 -33 1 -58 8
-68 18 -9 9 -24 16 -34 16 -18 0 -51 -29 -51 -44 0 -5 -16 -30 -35 -56 -19
-26 -35 -59 -35 -73 0 -42 -9 -55 -75 -102 -35 -25 -66 -53 -70 -64 -6 -19
-45 -60 -45 -47 0 5 9 21 21 37 15 22 17 27 5 23 -9 -3 -16 -10 -16 -14 0 -5
-9 -12 -20 -15 -20 -6 -20 -15 -20 -909 l0 -903 26 -13 c52 -28 53 -80 3 -100
-17 -8 -29 -20 -29 -31 0 -18 33 -19 1055 -19 906 0 1054 2 1049 14 -7 18 20
71 46 89 11 8 32 12 45 9 34 -6 33 -47 -2 -84 l-27 -28 725 1 c458 0 717 4
704 10 -14 7 -10 7 15 2 19 -3 300 -8 624 -10 559 -3 588 -2 581 14 -4 10 -7
33 -6 51 1 21 -2 31 -9 27 -6 -4 -10 5 -10 22 0 17 -8 33 -20 41 -21 13 -28
42 -10 42 6 0 10 -10 10 -21 0 -18 2 -19 15 -9 14 12 14 15 0 30 -8 9 -15 31
-15 48 0 25 3 30 18 26 16 -5 16 -5 0 6 -10 6 -18 18 -18 25 0 8 -4 15 -9 15
-9 0 -21 36 -27 79 -1 14 -10 28 -18 33 -9 5 -16 20 -16 33 0 15 -6 25 -14 25
-15 0 -32 37 -22 47 3 3 12 0 21 -7 9 -7 18 -11 20 -8 10 10 -7 36 -26 41 -13
4 -19 14 -19 32 0 23 3 25 14 16 23 -19 28 4 6 29 -11 13 -20 27 -20 32 0 12
24 10 38 -4 18 -18 23 -5 9 25 -6 15 -18 27 -26 27 -11 0 -13 12 -8 53 8 80
-5 133 -42 166 -35 31 -41 71 -17 124 8 18 18 52 24 77 9 43 10 44 11 11 1
-33 2 -34 15 -16 13 19 15 17 21 -18 4 -20 11 -37 16 -37 12 0 11 15 -2 65 -6
22 -10 50 -10 63 0 12 -5 22 -13 22 -7 0 -16 8 -20 17 -3 10 -9 24 -12 31 -3
6 -2 12 3 12 5 0 14 -12 20 -27 10 -25 11 -22 12 30 1 36 -3 56 -9 52 -5 -3
-17 -2 -26 3 -14 8 -13 10 2 23 13 11 18 11 21 2 3 -7 11 -13 20 -13 10 0 12
6 8 20 -5 14 -2 20 9 20 9 0 16 5 16 10 0 6 -8 10 -18 10 -10 0 -23 5 -30 12
-8 8 -15 8 -24 0 -10 -8 -22 -5 -47 15 -26 20 -31 31 -27 49 4 13 2 24 -3 24
-5 0 -7 17 -4 39 4 26 1 41 -8 46 -8 5 -11 5 -7 0 11 -11 -22 -34 -49 -35 -14
0 -23 -6 -23 -15 0 -20 -6 -19 -30 5 -22 22 -26 40 -9 40 5 0 7 5 4 10 -12 19
-33 10 -40 -17 l-7 -28 -13 32 c-11 25 -19 31 -39 29 -14 -2 -27 3 -30 10 -3
8 0 13 5 11 6 -1 13 11 15 28 2 16 0 25 -4 19 -14 -22 -50 -26 -62 -7 -9 14
-12 15 -17 4 -7 -17 -33 41 -33 75 0 12 -4 26 -10 29 -18 11 -10 50 14 67 34
24 76 34 76 16 0 -7 9 -19 20 -26 11 -7 20 -19 20 -27 0 -8 4 -15 9 -15 15 0
61 -106 61 -139 0 -24 4 -31 20 -31 30 0 27 27 -16 152 -4 10 -11 15 -17 11
-6 -4 -8 3 -3 21 4 16 2 26 -4 26 -6 0 -8 -4 -5 -10 3 -5 1 -10 -4 -10 -6 0
-11 11 -11 23 0 13 -9 32 -20 42 -35 32 -40 25 113 170 102 97 133 122 212
172 69 44 74 43 63 -16 -9 -41 -7 -51 8 -70 19 -21 54 -29 54 -12 0 6 18 8 40
5 31 -4 47 0 67 16 14 11 32 20 39 20 8 0 14 4 14 9 0 14 32 23 43 12 5 -5 16
-7 23 -4 9 3 14 -2 14 -16 0 -12 -6 -21 -14 -21 -10 0 -12 -11 -9 -44 7 -55
-24 -199 -39 -190 -7 4 -8 2 -4 -5 4 -6 -1 -42 -12 -79 -90 -301 -72 -515 93
-1107 57 -203 78 -300 120 -545 14 -85 29 -163 31 -172 5 -17 116 -18 2150
-18 l2144 0 -2 443 -3 442 -33 3 c-28 3 -32 6 -26 24 6 19 3 20 -34 15 -30 -5
-41 -3 -45 8 -4 9 -25 15 -64 17 -44 2 -58 7 -58 18 0 10 12 16 33 18 39 4 40
14 5 40 -49 36 -15 37 65 3 42 -19 96 -36 120 -38 l42 -5 0 2312 c0 1846 -3
2310 -12 2304 -10 -6 -10 -5 -1 7 15 19 13 416 -2 439 -8 12 -11 8 -16 -20 -5
-27 -7 -19 -8 32 0 37 -6 70 -12 74 -6 3 -7 9 -2 13 4 3 1 35 -9 71 l-16 65 5
-57 c4 -40 2 -58 -6 -58 -6 0 -10 12 -9 28 5 72 -3 163 -13 156 -7 -4 -10 8
-9 37 3 69 1 79 -15 79 -12 0 -15 16 -16 80 -1 44 -2 83 -3 88 -2 4 -6 34 -10
67 -4 33 -9 74 -11 90 -3 17 -7 93 -11 170 -4 77 -10 178 -14 225 -4 47 -5
-12 -1 -130 13 -446 6 -1032 -17 -1520 -14 -277 -18 -333 -48 -581 -14 -114
-24 -222 -22 -240 4 -36 4 -36 30 34 12 31 43 38 35 8 -3 -12 1 -22 9 -25 26
-10 14 -46 -32 -94 l-47 -47 -4 -137 -4 -138 39 0 c21 0 47 -6 58 -14 18 -14
18 -15 1 -21 -10 -4 -32 -5 -49 -1 -23 5 -28 3 -21 -7 14 -17 24 -87 12 -87
-5 0 -9 15 -9 34 0 29 -13 46 -34 46 -8 0 3 -397 16 -635 32 -532 40 -825 34
-1115 -6 -268 -25 -953 -31 -1085 -4 -117 -4 -117 -17 -109 -10 6 -10 5 -2 -7
7 -8 10 -34 7 -66 -5 -51 -6 -52 -52 -66 -26 -9 -124 -20 -226 -26 -99 -6
-201 -13 -227 -15 l-48 -3 0 49 c0 45 -3 50 -36 70 -24 14 -44 38 -60 72 -13
28 -44 79 -69 114 -41 58 -44 66 -38 108 5 40 3 48 -23 75 -16 17 -43 39 -60
50 -28 17 -37 35 -70 136 -35 106 -42 119 -79 145 -22 16 -54 36 -70 44 -17 8
-59 39 -93 70 -61 55 -61 56 -55 100 6 47 -1 55 -23 27 -12 -17 -14 -17 -47 0
-21 12 -41 34 -53 59 -16 35 -25 43 -64 52 -52 13 -155 86 -178 125 -8 15 -34
35 -58 45 -45 18 -186 119 -218 154 -15 17 -30 22 -71 22 -35 0 -57 5 -65 15
-7 8 -16 15 -20 15 -5 0 -40 18 -79 40 -39 22 -82 40 -96 40 -53 0 -139 62
-149 107 -11 50 -40 73 -91 73 -46 0 -77 -17 -97 -54 -9 -16 -7 -18 11 -13 30
7 26 -12 -5 -23 -38 -15 -48 -12 -33 7 13 15 12 15 -8 5 -12 -7 -25 -17 -28
-22 -17 -28 -86 -50 -154 -50 -60 0 -71 -3 -76 -19 -6 -20 -45 -36 -45 -19 0
5 9 12 20 15 26 7 26 23 -1 23 -12 0 -23 -8 -26 -20 -7 -26 -21 -26 -25 1 -2
12 -10 25 -18 30 -50 26 -111 48 -148 54 -36 6 -41 4 -36 -9 4 -12 2 -15 -9
-10 -8 3 -18 1 -21 -4 -8 -13 -69 1 -74 17 -3 10 5 12 33 9 l37 -4 -26 19
c-14 10 -26 28 -26 40 0 12 -18 42 -40 66 -30 33 -44 41 -57 36 -10 -5 -36
-10 -58 -13 -22 -2 -44 -10 -50 -17 -5 -7 -34 -20 -63 -30 -59 -19 -114 -14
-173 15 -25 13 -48 17 -77 13 -28 -4 -42 -2 -42 6 0 6 -13 11 -29 11 -43 0
-60 9 -77 43 -13 24 -14 31 -2 38 11 7 10 11 -2 20 -11 8 -12 12 -2 16 6 2 12
11 12 18 0 7 -6 16 -12 18 -10 4 -10 7 0 15 7 5 10 16 6 26 -4 11 -1 22 7 27
12 8 12 11 -1 20 -11 8 -12 12 -2 16 6 2 12 11 12 19 0 8 -6 14 -12 14 -8 1
-6 6 4 14 14 10 15 15 5 26 -9 10 -9 13 1 17 6 3 12 11 12 19 0 8 -6 14 -12
14 -8 0 -5 7 6 15 17 13 17 15 3 21 -21 8 -22 24 -2 24 20 0 19 10 -2 26 -15
11 -21 9 -39 -11 -20 -23 -29 -65 -77 -340 -11 -63 -15 -70 -37 -73 -14 -2
-42 4 -63 13 -44 18 -48 43 -17 107 11 23 20 54 20 70 0 19 4 26 14 22 8 -3
15 3 18 14 3 10 36 65 73 121 62 94 77 132 40 101 -21 -17 -21 6 1 27 9 9 12
22 8 32 -4 9 -7 27 -7 40 1 12 -15 53 -34 89 -29 55 -33 69 -24 89 7 15 8 31
2 41 -10 21 -4 42 14 42 7 0 19 10 27 22 14 20 18 21 55 10 22 -7 52 -12 67
-12 14 0 26 -5 26 -12 0 -19 20 5 25 30 2 15 -1 22 -11 22 -8 0 -12 5 -9 10 3
6 14 10 23 10 10 0 33 13 52 28 19 16 42 31 52 35 10 3 21 26 28 61 12 59 7
81 -16 72 -9 -4 -18 4 -24 19 -7 18 -17 25 -35 25 -18 0 -25 5 -25 19 0 10 -8
22 -17 26 -17 7 -16 8 2 15 18 8 17 9 -7 11 -16 1 -36 3 -45 3 -10 1 -27 15
-38 31 -29 44 -42 56 -57 50 -7 -3 -20 -1 -28 5 -13 8 -12 11 4 23 18 13 18
14 -8 21 -15 4 -24 11 -21 16 4 6 1 27 -5 46 -9 27 -15 33 -21 23 -5 -8 -9
-12 -10 -9 0 3 -3 25 -5 50 -3 25 -12 50 -20 56 -18 15 -18 34 1 34 8 0 15 7
15 15 0 9 -7 18 -15 21 -8 4 -15 12 -15 19 0 13 -42 45 -60 45 -15 0 -11 -31
10 -75 22 -46 25 -87 9 -117 -11 -20 -12 -20 -26 12 -7 19 -27 45 -43 58 -18
15 -30 34 -30 49 0 27 -32 43 -95 48 -22 2 -48 6 -59 11 -10 4 -30 6 -45 5
-14 -1 -78 -4 -141 -6 -64 -2 -122 -6 -130 -9 -83 -28 -120 -25 -120 10 0 8
-9 19 -19 26 -16 9 -17 15 -7 32 16 28 28 45 49 64 9 9 17 22 17 29 0 7 9 17
20 23 17 9 29 50 15 50 -15 0 -118 -55 -122 -66 -2 -7 -22 -20 -44 -28 -21 -9
-39 -21 -39 -26 0 -6 -18 -19 -41 -29 -37 -17 -39 -20 -23 -30 17 -9 16 -10
-9 -11 -24 0 -26 -2 -16 -19 7 -11 9 -26 4 -37 -4 -11 -7 -29 -6 -41 3 -26 -6
-29 -28 -9 -9 8 -36 16 -61 17 -40 3 -45 1 -50 -21 -6 -23 -7 -24 -17 -6 -7
13 -15 16 -24 10 -8 -5 -20 -9 -28 -11 -26 -3 -71 -25 -71 -34 0 -5 -9 -9 -20
-9 -11 0 -20 -7 -20 -15 0 -8 -9 -20 -20 -27 -11 -7 -20 -23 -20 -35 0 -13 -5
-23 -11 -23 -5 0 -7 5 -4 10 4 6 -7 10 -27 9 -31 0 -32 -1 -9 -10 19 -7 22
-12 13 -21 -21 -21 -13 -38 16 -38 15 0 22 -3 15 -8 -16 -10 -21 -94 -5 -100
6 -2 12 2 12 8 0 10 4 10 15 0 8 -7 15 -19 15 -27 0 -7 -7 -16 -15 -19 -8 -4
-15 -11 -15 -16 0 -5 -18 -27 -40 -48 l-39 -38 39 -42 c45 -49 49 -60 20 -60
-11 0 -20 5 -20 10 0 17 -29 11 -51 -11 -11 -11 -18 -27 -15 -35 9 -23 26 -16
26 11 0 18 5 25 20 25 16 0 20 -7 20 -36 0 -27 -5 -37 -20 -41 -13 -3 -20 -14
-20 -29 0 -22 -4 -24 -42 -24 -29 0 -38 -3 -29 -9 8 -5 -5 -7 -35 -3 -27 2
-50 9 -52 13 -5 13 -162 11 -162 -1 0 -5 8 -10 18 -10 15 -1 15 -2 -2 -15 -14
-11 -23 -12 -32 -4 -7 6 -18 8 -24 4 -6 -4 -19 0 -28 8 -9 8 -32 18 -51 22
-31 7 -70 38 -71 57 0 3 8 9 18 11 9 3 4 5 -13 4 -24 -2 -31 2 -33 21 -2 12
-7 22 -12 22 -5 0 -11 8 -13 18 -3 11 -5 8 -6 -9 0 -15 -7 -29 -15 -32 -10 -4
-18 11 -30 51 -28 102 -56 255 -62 347 -6 94 -20 155 -34 155 -15 0 -32 71
-27 106 4 25 2 34 -9 34 -8 0 -14 -7 -14 -16 0 -9 -10 -28 -22 -43 l-23 -27
-29 75 c-56 151 -84 237 -90 283 -5 41 -2 50 22 75 41 44 60 48 75 15 6 -15
16 -30 22 -34 6 -5 2 -8 -8 -8 -10 0 -15 -5 -12 -10 4 -6 10 -8 15 -5 5 3 8
-7 7 -22 -2 -25 2 -28 31 -31 26 -3 32 0 32 16 0 11 7 25 15 32 8 7 15 18 15
25 0 6 8 19 18 28 10 9 28 37 41 62 27 53 33 57 21 13 -15 -58 -16 -93 -2 -93
8 0 31 52 58 133 48 145 65 182 127 283 44 72 96 113 232 182 39 19 87 47 108
61 21 14 40 26 42 26 2 0 25 13 51 30 62 39 116 46 183 24 33 -10 48 -20 40
-24 -9 -6 -9 -9 2 -13 8 -2 4 -3 -7 -1 -12 2 -31 -5 -44 -16 -12 -11 -31 -22
-42 -26 -24 -7 -18 -28 10 -32 28 -4 28 -19 1 -27 -15 -5 -17 -10 -10 -19 8
-10 4 -16 -15 -24 -14 -7 -32 -12 -40 -12 -8 0 -12 -4 -9 -10 3 -5 19 -10 35
-10 15 0 30 -5 32 -10 2 -6 50 -17 108 -26 57 -9 118 -23 135 -31 56 -30 65
-33 79 -33 21 0 116 -42 116 -51 0 -12 -77 -12 -84 0 -9 14 -58 20 -101 12
-35 -6 -37 -8 -17 -15 30 -10 28 -24 -5 -28 l-28 -4 25 -11 c80 -37 324 -64
412 -46 44 9 92 62 137 151 21 42 46 90 54 106 15 27 15 31 -1 42 -14 10 -15
15 -4 25 6 7 12 21 12 30 0 9 9 23 20 30 16 11 22 28 26 73 2 32 9 67 15 78 8
14 8 23 0 31 -6 6 -11 19 -11 29 0 10 -13 24 -30 33 -16 9 -30 20 -30 25 0 6
-10 10 -22 10 -11 0 -37 12 -57 27 -41 32 -175 103 -192 103 -7 0 -20 7 -30
16 -16 15 -16 18 6 52 13 20 39 57 58 82 18 25 47 70 63 100 16 30 32 57 37
58 4 2 7 12 7 21 0 10 8 26 19 35 10 9 26 42 36 72 16 52 77 137 112 158 11 6
23 -2 45 -28 24 -29 33 -34 44 -25 10 8 27 8 65 0 44 -10 55 -9 69 4 13 11 20
13 25 5 4 -6 16 -8 28 -4 41 13 89 6 104 -16 9 -13 21 -19 32 -15 9 3 26 -2
36 -10 40 -30 95 -64 142 -87 84 -41 129 -77 164 -131 18 -29 40 -57 48 -63 8
-6 11 -16 7 -22 -4 -7 -3 -12 3 -12 5 0 12 -13 16 -29 3 -16 13 -35 21 -42 8
-6 14 -22 14 -35 0 -12 7 -30 16 -38 8 -9 12 -16 8 -16 -4 0 2 -10 14 -22 40
-43 132 -283 132 -345 0 -17 4 -33 9 -35 4 -1 11 -45 13 -96 3 -51 4 -91 3
-90 -2 2 -22 28 -44 58 -23 30 -47 55 -54 56 -6 0 -34 10 -62 23 -27 12 -66
26 -85 31 -19 5 -53 14 -75 20 -70 20 -180 38 -190 32 -5 -4 -20 -5 -32 -3
-16 1 -23 -3 -23 -13 0 -9 -6 -16 -14 -16 -10 0 -17 -16 -21 -47 -3 -27 -12
-64 -19 -83 -9 -25 -10 -42 -3 -58 13 -29 -15 -64 -35 -44 -19 19 -28 14 -28
-16 0 -19 -7 -30 -22 -37 -13 -6 -24 -20 -26 -33 -2 -13 -10 -26 -18 -29 -19
-7 -18 -53 1 -53 11 0 15 -13 15 -53 0 -56 25 -157 39 -157 4 0 21 -12 37 -27
16 -15 36 -27 44 -28 8 -1 26 -7 40 -13 91 -40 122 -51 134 -46 8 3 31 1 51
-5 22 -6 45 -6 58 -1 12 5 16 9 9 9 -9 1 -11 8 -7 21 5 15 3 18 -8 14 -32 -12
-138 32 -120 49 5 6 144 0 211 -8 19 -2 30 0 27 6 -11 17 24 9 37 -9 17 -23
64 -53 72 -45 3 4 6 13 6 22 0 8 9 24 20 36 20 21 20 21 0 63 -11 22 -20 50
-20 60 0 20 -39 52 -63 52 -8 0 -31 13 -51 29 -20 16 -65 37 -100 46 -56 15
-77 16 -159 6 -133 -15 -127 -17 -127 24 0 19 4 35 9 35 5 0 11 18 15 40 3 22
11 40 17 40 14 0 39 26 39 41 0 9 3 9 14 0 11 -10 16 -9 23 4 8 14 16 15 58 4
46 -12 50 -11 63 9 12 19 24 22 76 22 81 -1 153 -27 219 -81 75 -61 87 -98 87
-275 0 -103 5 -159 19 -215 11 -41 23 -123 27 -182 4 -63 11 -106 17 -104 5 1
21 23 34 47 14 25 30 54 37 65 7 11 19 38 26 60 22 66 79 181 100 200 24 22
26 35 5 35 -20 0 -12 16 38 69 21 23 35 45 32 51 -3 5 2 26 11 47 9 21 17 49
18 63 2 14 6 39 10 55 6 26 5 25 -7 -5 -8 -19 -20 -55 -28 -79 -8 -25 -20 -47
-28 -49 -9 -3 -11 1 -7 15 4 11 13 56 20 99 16 93 13 398 -4 419 -6 7 -8 29
-5 51 4 23 1 51 -6 69 -7 17 -14 37 -15 45 -1 8 -3 22 -5 30 -2 8 3 15 11 15
9 0 15 -9 14 -22 0 -13 3 -23 8 -23 4 0 8 -6 8 -12 1 -16 39 -97 40 -83 0 6
-13 49 -30 95 -28 81 -31 85 -57 82 -26 -3 -27 -3 -10 16 18 20 23 42 8 42 -5
0 -12 -6 -15 -12 -3 -7 -4 3 -3 22 2 28 -2 35 -17 35 -12 0 -31 23 -58 75 -22
41 -51 89 -64 107 -25 33 -31 48 -15 38 5 -3 12 4 16 14 6 20 -20 71 -36 71
-5 0 -9 5 -9 10 0 37 -231 279 -267 280 -4 0 -19 12 -32 25 -13 14 -29 25 -37
25 -8 0 -14 4 -14 9 0 5 -25 22 -55 37 -30 16 -55 32 -55 36 0 4 -8 8 -17 8
-14 -1 -9 -8 16 -30 50 -42 35 -44 -29 -4 -59 37 -78 61 -41 51 18 -4 20 -3
10 9 -6 8 -18 14 -25 14 -8 0 -14 4 -14 9 0 15 -33 22 -41 9 -6 -10 -15 -6
-34 14 -14 15 -42 32 -63 37 -57 15 -120 21 -124 11 -2 -5 -23 -4 -49 1 -39 9
-52 18 -95 74 -27 35 -55 64 -63 64 -8 1 -41 14 -75 30 -34 15 -76 31 -95 35
-19 3 -43 14 -53 23 -14 13 -44 16 -168 17 -123 1 -147 3 -133 14 26 19 3 13
-47 -11z m145 -17 c3 -5 -1 -10 -9 -10 -9 0 -16 5 -16 10 0 6 4 10 9 10 6 0
13 -4 16 -10z m-810 -436 c0 -12 -8 -20 -22 -22 -25 -4 -31 16 -11 36 17 17
33 10 33 -14z m-115 -163 c0 -5 -7 -12 -16 -15 -14 -5 -15 -4 -4 9 14 17 20
19 20 6z m1110 -101 c0 -5 -5 -10 -11 -10 -5 0 -7 5 -4 10 3 6 8 10 11 10 2 0
4 -4 4 -10z m1220 -26 c0 -8 -4 -12 -10 -9 -5 3 -10 10 -10 16 0 5 5 9 10 9 6
0 10 -7 10 -16z m70 -101 c0 -43 -21 -21 -58 61 -3 5 10 -2 27 -15 19 -14 31
-32 31 -46z m-250 -88 c0 -8 -4 -15 -10 -15 -5 0 -10 7 -10 15 0 8 5 15 10 15
6 0 10 -7 10 -15z m-1364 -31 c-10 -14 -20 -23 -23 -20 -3 3 2 17 11 32 10 14
20 23 23 20 3 -3 -2 -17 -11 -32z m1389 -12 c-3 -3 -11 0 -18 7 -9 10 -8 11 6
5 10 -3 15 -9 12 -12z m-1460 -62 c-10 -11 -22 -20 -28 -20 -5 0 1 11 14 24
28 29 40 25 14 -4z m96 -11 c-9 -22 -10 -22 -10 -3 -1 11 2 24 6 27 12 12 14
0 4 -24z m-91 -39 c-6 -11 -15 -20 -20 -20 -6 0 -5 9 2 20 7 11 16 20 21 20 4
0 3 -9 -3 -20z m-122 -179 c-13 -21 -59 -51 -78 -51 -7 0 7 16 31 35 49 39 65
44 47 16z m182 -81 c0 -5 -4 -10 -9 -10 -6 0 -13 5 -16 10 -3 6 1 10 9 10 9 0
16 -4 16 -10z m45 0 c3 -5 -1 -10 -9 -10 -9 0 -16 5 -16 10 0 6 4 10 9 10 6 0
13 -4 16 -10z m-7 -39 c97 -33 129 -49 160 -81 17 -16 35 -30 41 -30 6 0 11
-6 11 -13 0 -7 9 -20 20 -30 11 -9 17 -23 14 -31 -3 -8 -1 -17 5 -21 13 -7 15
-115 3 -115 -5 0 -31 21 -57 46 -50 47 -96 75 -175 106 -40 16 -139 25 -329
28 -37 0 -15 15 54 36 40 12 73 30 100 56 22 21 46 38 53 38 7 0 15 7 18 15 8
19 13 19 82 -4z m1759 -188 c-3 -10 -5 -2 -5 17 0 19 2 27 5 18 2 -10 2 -26 0
-35z m-871 -152 c-13 -20 -26 -11 -26 16 0 25 1 26 16 11 9 -9 13 -21 10 -27z
m54 29 c0 -5 -2 -10 -4 -10 -3 0 -8 5 -11 10 -3 6 -1 10 4 10 6 0 11 -4 11
-10z m-2343 -53 c1 -27 -4 -35 -26 -45 -28 -12 -53 -69 -66 -149 -4 -24 -12
-46 -17 -49 -15 -9 -1 109 18 154 8 19 14 43 14 53 0 11 4 19 8 19 5 0 15 11
22 25 20 37 46 33 47 -8z m6467 -3 c9 -24 7 -31 -9 -38 -10 -3 -20 5 -30 24
-15 29 -15 30 9 30 13 0 27 -7 30 -16z m-31 -95 c-8 -8 -16 -8 -30 0 -16 9
-14 10 12 11 21 0 26 -3 18 -11z m-4865 -26 c20 -3 30 -9 24 -15 -11 -11 -163
6 -188 21 -15 10 -4 11 56 6 41 -3 90 -8 108 -12z m1014 -96 c14 -22 9 -26
-22 -17 -38 11 -50 19 -50 32 0 14 61 2 72 -15z m-2682 -46 c0 -6 -4 -13 -10
-16 -5 -3 -10 1 -10 9 0 9 5 16 10 16 6 0 10 -4 10 -9z m282 -17 c-3 -17 -8
-22 -15 -15 -7 7 -6 15 3 26 17 20 18 19 12 -11z m-203 -31 c-11 -29 -67 -93
-81 -93 -4 0 -8 10 -7 23 0 14 17 35 47 59 26 20 48 37 49 37 1 1 -2 -11 -8
-26z m1464 -567 c-3 -13 0 -27 6 -30 6 -4 11 -15 11 -25 0 -9 20 -39 46 -65
33 -35 55 -49 82 -53 20 -3 42 -9 47 -13 6 -4 22 -10 38 -14 15 -3 27 -11 27
-17 0 -5 12 -20 27 -33 23 -20 25 -26 15 -39 -17 -20 3 -27 55 -20 32 4 43 1
54 -13 29 -39 101 -27 155 25 21 21 51 46 67 56 l27 17 0 -44 c0 -25 5 -70 10
-99 8 -40 8 -66 -1 -99 -15 -57 -23 -67 -59 -75 -23 -5 -35 1 -71 34 -43 40
-108 67 -135 57 -17 -6 -109 17 -149 38 -35 19 -81 20 -156 6 -30 -6 -92 -11
-138 -12 -92 -1 -105 7 -97 55 4 21 2 27 -11 27 -13 0 -14 3 -5 12 21 21 13
28 -28 28 -41 0 -49 7 -28 28 9 9 7 12 -10 12 -12 0 -22 6 -22 14 0 8 -4 16
-10 18 -12 4 -1 48 12 48 5 0 43 34 83 75 49 51 83 77 104 81 20 4 31 12 31
24 0 9 3 20 6 23 12 12 21 -2 17 -27z m-143 -26 c0 -5 -4 -10 -10 -10 -5 0
-10 5 -10 10 0 6 5 10 10 10 6 0 10 -4 10 -10z m4947 -122 c-3 -8 -6 -5 -6 6
-1 11 2 17 5 13 3 -3 4 -12 1 -19z m-4979 -393 c17 -4 32 -10 32 -15 0 -4 -8
-6 -19 -3 -10 3 -21 0 -25 -5 -3 -5 12 -12 35 -16 22 -4 42 -13 44 -21 3 -8 8
-23 12 -32 3 -10 5 -22 4 -27 -1 -5 7 -15 19 -23 26 -18 26 -43 0 -43 -16 0
-20 -7 -20 -32 1 -31 1 -32 15 -14 14 19 15 18 15 -12 0 -19 5 -32 13 -32 6 0
25 -28 42 -62 23 -49 31 -58 33 -40 4 25 27 30 36 7 3 -8 12 -12 21 -9 9 4 15
0 15 -9 0 -21 79 -33 121 -18 18 6 58 11 90 11 72 0 104 12 140 53 27 30 33
46 30 74 -1 6 3 14 9 18 17 10 11 36 -7 33 -11 -2 -22 6 -27 19 -6 12 -19 23
-31 26 -11 2 -28 8 -37 12 -13 5 -15 2 -11 -16 5 -19 3 -21 -15 -17 -12 4 -22
2 -22 -3 0 -12 -43 5 -48 19 -2 7 7 12 22 12 16 0 26 6 26 14 0 8 -8 15 -17
15 -58 0 -143 26 -143 42 0 5 3 9 8 10 187 23 273 7 280 -54 4 -29 32 -39 32
-11 0 27 33 11 42 -21 4 -16 10 -76 12 -133 4 -92 7 -105 27 -123 17 -14 24
-33 27 -77 3 -31 11 -66 17 -77 7 -11 12 -29 11 -40 -2 -23 -27 -65 -39 -65
-4 0 -39 -25 -77 -56 -44 -35 -74 -53 -82 -48 -17 11 -92 5 -99 -8 -4 -6 -17
-8 -30 -5 -13 3 -35 8 -49 11 -22 5 -61 41 -80 76 -7 12 -34 15 -137 15 -118
1 -190 12 -236 36 -10 5 -22 7 -27 4 -6 -4 -15 6 -22 22 -9 22 -12 24 -15 11
-5 -19 -33 -25 -33 -7 0 5 -4 8 -8 5 -14 -8 -96 20 -152 52 -51 29 -123 105
-135 142 -3 10 -16 20 -27 22 -31 4 -34 26 -4 34 28 7 34 19 14 27 -7 3 -1 6
15 6 21 1 27 6 27 24 1 28 20 54 45 59 12 2 19 10 17 21 -2 11 4 17 16 17 22
0 38 40 21 51 -6 4 2 12 19 20 17 7 40 30 51 50 22 38 38 49 72 49 10 0 19 7
19 15 0 9 11 20 24 25 13 5 27 14 31 20 4 6 14 9 23 6 10 -2 32 -7 50 -11z
m-348 -26 c0 -5 -4 -9 -10 -9 -5 0 -10 7 -10 16 0 8 5 12 10 9 6 -3 10 -10 10
-16z m471 -56 c12 -15 12 -16 -4 -10 -10 4 -23 7 -28 7 -6 0 -7 5 -4 10 9 15
21 12 36 -7z m-1151 -37 c0 -3 -4 -8 -10 -11 -5 -3 -10 -1 -10 4 0 6 5 11 10
11 6 0 10 -2 10 -4z m-220 -76 c0 -5 -5 -10 -11 -10 -5 0 -7 5 -4 10 3 6 8 10
11 10 2 0 4 -4 4 -10z m430 -50 c0 -5 -5 -10 -11 -10 -5 0 -7 5 -4 10 3 6 8
10 11 10 2 0 4 -4 4 -10z m405 -60 c-3 -5 -10 -10 -16 -10 -5 0 -9 5 -9 10 0
6 7 10 16 10 8 0 12 -4 9 -10z m-35 -16 c0 -8 -5 -12 -10 -9 -6 4 -8 11 -5 16
9 14 15 11 15 -7z m5437 -316 c-3 -8 -6 -5 -6 6 -1 11 2 17 5 13 3 -3 4 -12 1
-19z m23 -125 c0 -7 -4 -13 -10 -13 -5 0 -10 12 -10 28 0 21 2 24 10 12 5 -8
10 -21 10 -27z m-6968 -19 c-3 -20 -16 -53 -29 -73 l-25 -36 7 40 c3 22 7 55
8 73 2 25 6 32 22 32 18 0 20 -5 17 -36z m-52 -20 c-18 -21 -24 -10 -9 18 8
14 14 18 17 10 2 -7 -2 -19 -8 -28z m7096 -111 c-7 -58 -7 -78 2 -81 7 -2 12
-8 12 -13 0 -6 -4 -7 -10 -4 -6 4 -10 -7 -10 -25 0 -18 4 -29 10 -25 6 4 10
-13 10 -44 0 -41 -3 -51 -17 -51 -15 0 -15 -1 2 -13 13 -10 16 -21 11 -40 -4
-16 -2 -27 6 -29 8 -3 9 -15 1 -45 -7 -27 -7 -60 -1 -99 6 -33 8 -102 5 -154
-3 -68 -1 -98 8 -106 14 -14 19 -154 5 -154 -5 0 -7 6 -5 13 3 6 1 26 -4 42
-8 27 -9 24 -11 -25 -1 -30 -3 -98 -6 -150 -3 -52 -6 -127 -8 -166 -3 -96 -19
-117 -27 -39 -4 36 -3 62 3 66 7 4 6 14 -1 27 -15 28 -14 48 4 65 12 12 12 16
1 20 -10 4 -12 39 -10 159 1 84 0 142 -2 128 -3 -14 -10 -29 -15 -35 -6 -6 -8
74 -7 208 2 169 5 217 15 217 7 0 13 5 13 11 0 5 -4 8 -9 4 -16 -9 -21 10 -11
41 l8 29 1 -27 c1 -16 6 -28 12 -28 12 0 3 73 -10 78 -8 3 -6 66 4 81 3 6 1
11 -4 11 -6 0 -11 14 -11 30 0 17 4 30 10 30 5 0 6 7 3 17 -4 11 -3 14 5 9 7
-4 12 -1 12 9 0 9 -4 13 -10 10 -5 -3 -10 3 -10 15 0 12 4 19 8 16 4 -2 9 13
9 35 2 51 13 85 22 71 4 -6 2 -46 -3 -89z m-79 45 c-3 -7 -5 -2 -5 12 0 14 2
19 5 13 2 -7 2 -19 0 -25z m-7087 -87 c0 -6 -4 -13 -10 -16 -5 -3 -10 1 -10 9
0 9 5 16 10 16 6 0 10 -4 10 -9z m-24 -118 c-11 -11 -19 6 -11 24 8 17 8 17
12 0 3 -10 2 -21 -1 -24z m2950 -45 c-4 -46 -8 -91 -8 -100 1 -10 -5 -18 -11
-18 -7 0 -22 -23 -35 -50 -56 -124 -146 -177 -359 -214 -35 -6 -46 10 -15 21
38 14 110 69 169 129 34 35 67 64 72 64 6 0 11 6 11 13 0 6 25 47 55 90 30 42
55 81 55 86 0 16 42 61 57 61 14 0 15 -11 9 -82z m4334 0 c0 -27 -4 -38 -15
-38 -12 0 -15 13 -15 63 1 59 1 61 15 37 8 -14 14 -42 15 -62z m-7290 18 c0
-3 -4 -8 -10 -11 -5 -3 -10 -1 -10 4 0 6 5 11 10 11 6 0 10 -2 10 -4z m2829
-63 c-7 -10 -24 -28 -38 -40 -13 -13 -21 -23 -18 -23 4 0 -10 -15 -31 -34 -21
-20 -40 -30 -43 -24 -4 7 -9 6 -14 -2 -4 -7 -1 -16 6 -21 10 -6 3 -9 -21 -10
-19 0 -29 -3 -22 -6 18 -7 15 -16 -9 -32 -19 -11 -21 -11 -16 2 4 11 -6 9 -41
-8 -26 -13 -49 -21 -52 -19 -7 7 51 54 67 54 7 0 13 5 13 10 0 6 8 14 18 18
11 4 36 22 58 39 39 32 146 111 153 112 2 1 -3 -7 -10 -16z m985 -14 c14 -7
27 -18 30 -26 8 -20 -32 -7 -59 18 -22 21 -9 25 29 8z m3471 -19 c0 -13 -6
-25 -12 -27 -9 -3 -13 6 -13 27 0 21 4 30 13 28 6 -3 12 -15 12 -28z m5 -42
c0 -2 -7 -21 -15 -43 l-14 -40 -1 43 c0 31 4 42 15 42 8 0 15 -1 15 -2z m-43
-60 c-2 -13 -4 -5 -4 17 -1 22 1 32 4 23 2 -10 2 -28 0 -40z m-7257 -8 c0 -5
-5 -10 -11 -10 -5 0 -7 5 -4 10 3 6 8 10 11 10 2 0 4 -4 4 -10z m3535 0 c3 -5
-1 -10 -10 -10 -8 0 -18 -7 -21 -15 -7 -16 -44 -21 -44 -6 0 12 40 41 57 41 6
0 15 -4 18 -10z m1243 -30 c40 -24 43 -46 4 -26 -30 16 -60 46 -46 46 5 0 24
-9 42 -20z m-69 -57 c42 -51 41 -64 -6 -48 -40 14 -63 38 -63 67 0 31 36 21
69 -19z m-315 17 c30 -11 35 -30 9 -30 -29 1 -72 40 -44 40 5 0 21 -4 35 -10z
m-1399 -8 c11 -8 18 -32 9 -32 -13 0 -44 21 -44 30 0 12 21 13 35 2z m1970
-32 c0 -10 -13 -16 -42 -18 -32 -2 -43 1 -43 11 0 22 12 28 50 25 23 -2 35 -8
35 -18z m-180 -40 c3 -5 -1 -10 -9 -10 -8 0 -18 5 -21 10 -3 6 1 10 9 10 8 0
18 -4 21 -10z m2518 -30 c-7 -28 -13 -25 -13 6 0 14 4 23 9 20 5 -3 7 -15 4
-26z m-8043 15 c0 -6 -57 -35 -70 -35 -20 0 -9 19 18 28 30 12 52 14 52 7z
m4835 -22 c8 -23 -2 -28 -22 -11 -10 9 -24 13 -30 11 -13 -5 -18 9 -8 19 10
10 54 -4 60 -19z m489 -14 c33 -26 32 -62 -2 -67 -29 -4 -62 24 -62 53 0 41
23 46 64 14z m451 -3 c28 -29 24 -56 -9 -56 -44 0 -84 49 -59 73 14 14 45 6
68 -17z m130 -21 c16 -13 26 -27 23 -31 -9 -9 -88 37 -88 52 0 17 29 7 65 -21z
m-5145 16 c0 -11 -59 -26 -67 -18 -3 3 -2 10 2 16 8 13 65 15 65 2z m3365 -12
c0 -8 -12 -15 -27 -17 -31 -4 -37 12 -10 27 21 13 37 9 37 -10z m604 -9 c12
-18 13 -22 2 -19 -8 3 -21 16 -30 29 -12 18 -13 22 -2 19 8 -3 21 -16 30 -29z
m-4674 4 c26 -11 34 -18 26 -24 -18 -10 -81 10 -81 27 0 17 9 16 55 -3z m7982
-66 c-2 -18 -4 -6 -4 27 0 33 2 48 4 33 2 -15 2 -42 0 -60z m-8197 68 c0 -2
-7 -7 -16 -10 -8 -3 -12 -2 -9 4 6 10 25 14 25 6z m490 -2 c0 -4 -8 -13 -17
-20 -20 -15 -63 -19 -63 -6 0 5 10 14 23 20 25 12 57 15 57 6z m4704 -27 c27
-20 17 -51 -17 -55 -33 -4 -57 13 -57 38 0 30 43 39 74 17z m-5154 -12 c-14
-8 -38 -14 -55 -14 l-30 1 30 13 c17 8 41 14 55 14 l25 0 -25 -14z m2630 -6
c0 -5 -7 -9 -15 -9 -15 0 -20 12 -9 23 8 8 24 -1 24 -14z m1429 7 c8 -10 9
-16 1 -21 -13 -8 -30 3 -30 21 0 18 14 18 29 0z m-3819 -25 c0 -10 -79 -51
-99 -51 -11 0 -11 3 -1 15 26 31 100 58 100 36z m5855 -22 c5 -5 1 -9 -12 -9
-11 0 -27 7 -34 16 -12 15 -11 16 11 9 14 -4 29 -11 35 -16z m-3665 -9 c0 -5
-5 -10 -11 -10 -5 0 -7 5 -4 10 3 6 8 10 11 10 2 0 4 -4 4 -10z m95 1 c7 -12
-12 -24 -25 -16 -11 7 -4 25 10 25 5 0 11 -4 15 -9z m735 -1 c0 -5 -4 -10 -10
-10 -5 0 -10 5 -10 10 0 6 5 10 10 10 6 0 10 -4 10 -10z m245 -11 c4 -6 -7
-24 -24 -41 -17 -17 -28 -35 -24 -41 3 -6 1 -7 -6 -3 -14 9 -45 -20 -36 -34 4
-6 3 -10 -2 -9 -4 2 -39 -12 -77 -30 -50 -24 -65 -36 -55 -42 9 -6 2 -7 -18
-3 -26 5 -33 3 -33 -10 0 -9 3 -15 8 -15 20 3 19 -3 -4 -26 -14 -14 -27 -25
-29 -25 -3 0 -48 -44 -102 -98 -141 -142 -132 -139 -218 -81 -38 26 -88 64
-110 84 -22 20 -52 46 -68 57 -16 11 -26 26 -23 34 3 7 1 16 -5 20 -6 3 -8 12
-5 19 3 8 -6 21 -19 29 -13 9 -32 24 -42 35 -10 10 -31 21 -47 25 -26 7 -56
27 -56 40 0 3 14 3 30 0 17 -4 30 -2 30 4 0 5 -13 12 -29 15 -23 5 -29 11 -27
32 0 14 6 25 12 25 18 0 24 -13 12 -27 -8 -11 -7 -12 6 -7 9 3 16 11 16 16 0
10 95 2 113 -9 5 -3 66 -5 135 -5 90 0 190 10 342 32 118 18 242 35 275 40 33
4 63 8 67 9 4 0 10 -4 13 -10z m-3635 -8 c0 -13 -83 -91 -97 -91 -12 0 -14 4
-17 29 -1 6 24 23 54 40 64 35 60 33 60 22z m415 -4 c26 -19 11 -37 -31 -35
-36 1 -60 20 -49 38 9 14 58 13 80 -3z m5063 -13 c29 -20 28 -38 -4 -59 -23
-15 -27 -15 -50 0 -26 17 -31 44 -12 63 16 16 39 15 66 -4z m958 1 c16 -12 16
-14 3 -15 -9 0 -22 7 -29 15 -16 19 0 19 26 0z m-3636 -3 c0 -13 -12 -22 -22
-16 -10 6 -1 24 13 24 5 0 9 -4 9 -8z m60 -2 c0 -5 -4 -10 -10 -10 -5 0 -10 5
-10 10 0 6 5 10 10 10 6 0 10 -4 10 -10z m-287 -44 c4 -10 1 -13 -9 -9 -15 6
-19 23 -5 23 5 0 11 -7 14 -14z m62 4 c-3 -5 -11 -10 -16 -10 -6 0 -7 5 -4 10
3 6 11 10 16 10 6 0 7 -4 4 -10z m5524 -72 c1 -10 -3 -18 -9 -18 -5 0 -10 19
-9 43 1 36 2 38 9 17 4 -14 8 -33 9 -42z m-8020 -13 c18 -18 6 -35 -25 -35
-33 0 -64 17 -64 35 0 26 60 27 89 0z m3461 11 c0 -2 -11 -11 -25 -20 -21 -14
-25 -14 -25 -2 0 8 8 17 18 19 25 7 32 7 32 3z m-3126 -35 c13 -20 -57 -57
-87 -45 -21 8 -10 34 13 34 11 0 22 5 25 10 8 12 42 13 49 1z m-834 -5 c0 -3
-4 -8 -10 -11 -5 -3 -10 -1 -10 4 0 6 5 11 10 11 6 0 10 -2 10 -4z m7020 -24
c0 -5 11 -15 25 -22 14 -7 25 -20 25 -27 0 -11 -6 -10 -24 4 -29 22 -50 53
-36 53 5 0 10 -4 10 -8z m-6006 -37 c-4 -8 -10 -12 -15 -9 -14 8 -10 24 6 24
9 0 12 -6 9 -15z m5796 -10 c-14 -16 -50 -21 -50 -6 0 9 20 17 49 20 11 1 11
-2 1 -14z m-1472 -11 c15 -10 22 -24 20 -37 -7 -47 -98 -24 -98 24 0 30 43 38
78 13z m309 -6 c6 -7 8 -32 5 -55 -6 -60 -27 -56 -25 5 1 6 -5 12 -13 12 -8 0
-14 -4 -14 -10 0 -19 -21 -10 -29 13 -7 18 -4 24 18 34 34 16 46 16 58 1z
m914 -11 c-1 -12 -15 -9 -19 4 -3 6 1 10 8 8 6 -3 11 -8 11 -12z m-2816 -17
c3 -5 -1 -10 -9 -10 -9 0 -16 5 -16 10 0 6 4 10 9 10 6 0 13 -4 16 -10z m-47
-17 c-5 -25 -28 -28 -28 -4 0 12 6 21 16 21 9 0 14 -7 12 -17z m355 0 c-7 -2
-19 -2 -25 0 -7 3 -2 5 12 5 14 0 19 -2 13 -5z m3124 1 c-3 -3 -12 -4 -19 -1
-8 3 -5 6 6 6 11 1 17 -2 13 -5z m-2207 -52 c0 -10 5 -23 12 -30 9 -9 7 -13
-5 -18 -38 -14 -64 25 -35 54 17 17 28 15 28 -6z m-4330 -43 c0 -13 -42 -49
-57 -49 -19 0 -16 13 10 42 20 23 47 27 47 7z m538 4 c-5 -25 -83 -52 -100
-34 -19 18 25 51 69 51 27 0 34 -4 31 -17z m2200 -100 c39 -29 40 -36 7 -51
-32 -15 -45 -15 -45 -1 0 6 -9 22 -20 36 -11 14 -20 29 -20 34 0 16 46 5 78
-18z m1906 -34 c34 -27 35 -59 1 -59 -18 0 -23 4 -19 15 5 11 0 14 -17 13 -19
-3 -25 2 -27 25 -4 34 23 37 62 6z m-5630 -56 c-24 -17 -44 -17 -44 2 0 8 -7
15 -15 15 -8 0 -15 5 -15 10 0 7 7 7 20 0 16 -8 26 -7 43 5 20 14 22 14 26 -2
2 -9 -5 -23 -15 -30z m1476 43 c0 -2 3 -11 6 -19 8 -22 -24 -47 -62 -47 -45 0
-57 26 -25 52 20 15 81 26 81 14z m7410 -32 c0 -8 -5 -12 -10 -9 -6 4 -8 11
-5 16 9 14 15 11 15 -7z m-8432 -60 c-6 -13 -15 -24 -19 -24 -14 0 -20 52 -7
67 10 13 13 13 24 -2 10 -13 10 -23 2 -41z m-668 22 c0 -13 -7 -29 -15 -36
-12 -10 -15 -10 -15 4 0 9 -5 16 -11 16 -6 0 -9 -7 -6 -14 6 -16 -26 -32 -43
-21 -18 11 -11 33 18 54 38 29 72 28 72 -3z m6013 -2 c-6 -18 -19 -18 -26 -1
-3 7 3 13 14 14 12 1 16 -3 12 -13z m3086 -51 c-1 -53 -6 -49 -11 10 -2 20 0
37 4 37 4 0 8 -21 7 -47z m-8841 -86 c2 -15 1 -27 -2 -27 -18 0 -36 15 -36 29
0 41 33 39 38 -2z m1537 23 c3 -5 -1 -10 -9 -10 -9 0 -16 -7 -16 -15 0 -18 12
-19 28 -3 9 9 12 9 12 0 0 -22 -47 -37 -75 -24 -27 13 -32 31 -13 50 15 15 64
16 73 2z m2185 -139 l0 -46 -15 29 c-20 38 -20 77 0 70 10 -4 15 -20 15 -53z
m40 43 c0 -10 16 -32 35 -51 26 -25 35 -30 35 -17 0 13 5 11 25 -10 31 -33 31
-36 3 -36 -19 0 -20 -2 -8 -10 19 -13 8 -13 -24 0 -14 5 -26 16 -26 24 0 8 -7
12 -17 10 -10 -2 -25 0 -33 6 -12 8 -13 13 -2 30 7 12 8 20 2 20 -5 0 -10 11
-10 25 0 14 5 25 10 25 6 0 10 -7 10 -16z m4071 -13 c30 -31 41 -91 17 -91
-34 1 -83 68 -73 100 9 27 21 25 56 -9z m-7381 -55 c-1 -32 -15 -58 -40 -71
-24 -12 -28 -12 -43 6 -17 19 -17 21 6 23 6 0 13 13 15 28 3 26 24 39 50 30 6
-2 12 -9 12 -16z m6874 -8 c27 -11 42 -40 31 -58 -11 -18 -70 -11 -93 10 -27
25 -28 36 -4 49 22 14 36 13 66 -1z m-604 -13 c10 -12 8 -18 -6 -32 -10 -10
-25 -18 -33 -18 -11 0 -15 -8 -13 -24 2 -24 2 -24 -18 -6 -24 22 -26 58 -4 79
19 20 58 21 74 1z m-5805 -29 c17 -12 18 -18 7 -40 -13 -29 -32 -35 -32 -10 0
9 -6 14 -12 11 -7 -2 -12 -10 -10 -16 1 -8 -6 -11 -20 -9 -33 4 -37 51 -6 66
32 15 51 14 73 -2z m2890 -16 c3 -5 1 -10 -4 -10 -6 0 -11 5 -11 10 0 6 2 10
4 10 3 0 8 -4 11 -10z m72 -12 c-3 -8 -6 -5 -6 6 -1 11 2 17 5 13 3 -3 4 -12
1 -19z m1766 -13 c-3 -9 -8 -14 -10 -11 -3 3 -2 9 2 15 9 16 15 13 8 -4z
m2095 -36 c20 -32 19 -73 -2 -66 -15 5 -56 66 -56 83 0 26 38 14 58 -17z
m-7218 -17 c20 -16 21 -23 13 -48 -5 -16 -22 -36 -37 -44 -26 -14 -28 -14 -47
9 -26 31 -24 46 3 27 42 -30 53 -11 16 26 -20 20 -20 22 -3 35 24 17 28 17 55
-5z m-535 -11 c3 -5 1 -12 -5 -16 -5 -3 -10 1 -10 9 0 18 6 21 15 7z m5710 -1
c3 -6 -1 -7 -9 -4 -18 7 -21 14 -7 14 6 0 13 -4 16 -10z m-5964 -76 c9 -11 9
-17 -1 -29 -14 -17 -40 -20 -40 -4 0 5 -5 7 -11 4 -20 -13 -59 4 -59 26 0 39
79 42 111 3z m7874 -84 c3 -5 1 -10 -4 -10 -6 0 -11 5 -11 10 0 6 2 10 4 10 3
0 8 -4 11 -10z m-1924 -39 c16 -16 29 -36 29 -44 0 -23 -36 -50 -58 -43 -44
14 -72 74 -47 100 24 23 43 20 76 -13z m-5361 -1 c0 -5 -4 -10 -10 -10 -5 0
-10 5 -10 10 0 6 5 10 10 10 6 0 10 -4 10 -10z m68 -29 c-2 -22 -9 -27 -37
-29 -48 -5 -63 15 -23 29 18 6 32 17 32 25 0 8 6 11 16 7 9 -3 14 -15 12 -32z
m5495 25 c4 -11 1 -13 -10 -9 -11 4 -14 2 -9 -5 4 -8 2 -10 -8 -6 -17 7 -10
34 9 34 7 0 15 -7 18 -14z m1561 -17 c47 -37 25 -87 -34 -74 -16 4 -30 11 -30
17 0 6 7 8 15 4 9 -3 15 0 15 10 0 12 -6 15 -25 10 -33 -8 -47 21 -20 40 26
19 48 17 79 -7z m-6926 -45 c24 -16 28 -44 12 -75 -15 -26 -33 -24 -25 2 7 20
5 21 -23 16 -26 -5 -32 -3 -38 15 -5 16 0 27 16 40 27 22 30 22 58 2z m7101
-41 c29 -24 38 -84 16 -106 -18 -18 -38 -13 -69 19 -22 21 -21 80 2 93 23 14
27 14 51 -6z m-3552 -65 c-3 -8 -6 -5 -6 6 -1 11 2 17 5 13 3 -3 4 -12 1 -19z
m2143 -69 c7 -16 9 -36 6 -45 -6 -15 -8 -15 -26 3 -11 13 -17 29 -13 42 3 12
1 21 -6 21 -6 0 -11 4 -11 9 0 20 39 -3 50 -30z m-4814 23 c18 -12 24 -43 13
-64 -14 -27 -69 -49 -91 -37 -35 19 -19 75 26 95 37 16 38 16 52 6z m4536 -11
c36 -14 62 -69 49 -103 -21 -55 -93 -26 -112 44 -9 37 -9 44 7 55 21 15 25 16
56 4z m-420 -18 c39 -35 8 -113 -46 -113 -27 0 -66 42 -66 69 0 9 7 27 16 39
18 27 69 30 96 5z m-5450 -25 c-7 -7 -12 -8 -12 -2 0 14 12 26 19 19 2 -3 -1
-11 -7 -17z m8177 -55 c14 -27 14 -33 0 -33 -5 0 -16 15 -24 34 -8 19 -19 38
-25 41 -6 4 -8 11 -4 16 6 10 32 -19 53 -58z m680 -24 c28 -7 48 -16 45 -21
-15 -24 -184 10 -184 37 0 7 7 21 16 29 14 15 18 14 44 -8 16 -13 52 -30 79
-37z m-3224 19 c26 -12 40 -42 33 -75 -2 -12 -12 -18 -32 -18 -22 0 -33 8 -49
36 -33 57 -11 84 48 57z m2044 -43 c17 -20 31 -40 31 -46 0 -14 -27 -22 -54
-15 -27 7 -71 69 -61 86 13 21 53 9 84 -25z m-2828 -24 c23 -19 23 -21 9 -48
-19 -33 -63 -52 -88 -37 -29 18 -27 59 4 83 33 26 45 26 75 2z m403 -7 c22
-21 20 -60 -4 -84 -26 -26 -55 -25 -74 2 -27 38 -17 97 10 60 10 -13 15 -14
25 -5 10 10 9 15 -1 28 -10 13 -9 15 8 15 11 0 28 -7 36 -16z m-1194 -54 c0
-5 -7 -10 -16 -10 -8 0 -12 5 -9 10 3 6 10 10 16 10 5 0 9 -4 9 -10z m4050
-21 c0 -6 -4 -7 -10 -4 -5 3 -10 11 -10 16 0 6 5 7 10 4 6 -3 10 -11 10 -16z
m234 -80 c17 -13 26 -29 24 -42 -5 -34 -24 -30 -47 8 -34 58 -25 72 23 34z
m-4294 -38 c0 -11 -6 -9 -20 7 -11 12 -20 24 -20 27 0 3 9 0 20 -7 11 -7 20
-19 20 -27z m3943 -24 c9 -4 17 -11 17 -17 0 -7 -7 -7 -22 1 -32 16 -58 40
-58 52 0 6 10 1 23 -10 12 -11 30 -23 40 -26z m-3102 3 c22 -12 26 -32 4 -24
-8 4 -15 1 -15 -5 0 -11 13 -15 36 -12 15 2 25 -24 18 -44 -14 -35 -86 2 -98
50 -11 43 12 57 55 35z m-3003 -12 c38 -38 -12 -112 -72 -106 -27 3 -31 7 -34
35 -5 56 70 107 106 71z m4322 -28 c0 -5 -2 -10 -4 -10 -3 0 -8 5 -11 10 -3 6
-1 10 4 10 6 0 11 -4 11 -10z m1680 -37 c34 -20 55 -55 47 -78 -6 -14 -11 -14
-45 4 -46 23 -74 67 -52 81 19 12 17 13 50 -7z m-2017 -25 c17 -23 19 -31 9
-53 -16 -34 -39 -42 -58 -19 -28 36 -45 76 -40 91 10 24 66 12 89 -19z m2545
-4 c-9 -9 -27 -14 -44 -12 l-29 4 25 11 c14 7 34 12 45 12 18 1 18 0 3 -15z
m-7500 -14 c27 -26 17 -58 -25 -83 -57 -33 -105 7 -76 65 20 40 67 49 101 18z
m-1308 0 c0 -5 -7 -10 -16 -10 -8 0 -12 5 -9 10 3 6 10 10 16 10 5 0 9 -4 9
-10z m6605 0 c3 -6 -1 -7 -9 -4 -18 7 -21 14 -7 14 6 0 13 -4 16 -10z m-2105
-48 c0 -21 -2 -24 -10 -12 -13 20 -13 53 0 45 6 -3 10 -18 10 -33z m-4197 7
c25 -40 -25 -102 -75 -92 -32 6 -44 43 -26 76 l13 22 3 -22 c3 -20 6 -21 23
-12 15 8 18 14 10 23 -6 7 -8 16 -4 20 12 11 45 2 56 -15z m8345 5 c12 -4 22
-12 22 -20 0 -30 -112 -32 -118 -2 -4 23 47 35 96 22z m-4123 -55 c11 -17 -1
-21 -15 -4 -8 9 -8 15 -2 15 6 0 14 -5 17 -11z m-4403 -35 c-3 -16 1 -30 9
-36 12 -8 11 -9 -1 -5 -16 4 -27 67 -12 67 5 0 7 -12 4 -26z m5249 -94 c30
-17 52 -66 39 -90 -20 -38 -77 -16 -100 40 -20 48 13 75 61 50z"/>
<path d="M4240 5810 c0 -5 7 -10 16 -10 8 0 12 5 9 10 -3 6 -10 10 -16 10 -5
0 -9 -4 -9 -10z"/>
<path d="M9345 2790 c3 -5 8 -10 11 -10 2 0 4 5 4 10 0 6 -5 10 -11 10 -5 0
-7 -4 -4 -10z"/>
<path d="M9354 2716 c-3 -7 -4 -40 -2 -72 l3 -59 5 73 c5 72 4 84 -6 58z"/>
<path d="M6405 2530 c-3 -5 1 -10 9 -10 9 0 16 5 16 10 0 6 -4 10 -9 10 -6 0
-13 -4 -16 -10z"/>
<path d="M3995 2290 c3 -5 8 -10 11 -10 2 0 4 5 4 10 0 6 -5 10 -11 10 -5 0
-7 -4 -4 -10z"/>
<path d="M6610 2410 c0 -5 5 -10 10 -10 6 0 10 5 10 10 0 6 -4 10 -10 10 -5 0
-10 -4 -10 -10z"/>
<path d="M6130 2170 c0 -5 7 -10 16 -10 8 0 12 5 9 10 -3 6 -10 10 -16 10 -5
0 -9 -4 -9 -10z"/>
<path d="M4170 1966 c0 -2 8 -10 18 -17 15 -13 16 -12 3 4 -13 16 -21 21 -21
13z"/>
<path d="M1925 1900 c-3 -5 -2 -10 4 -10 5 0 13 5 16 10 3 6 2 10 -4 10 -5 0
-13 -4 -16 -10z"/>
<path d="M7795 1530 c-3 -5 1 -10 10 -10 9 0 13 5 10 10 -3 6 -8 10 -10 10 -2
0 -7 -4 -10 -10z"/>
<path d="M6180 1170 c0 -5 5 -10 10 -10 6 0 10 5 10 10 0 6 -4 10 -10 10 -5 0
-10 -4 -10 -10z"/>
<path d="M8100 1040 c0 -5 5 -10 10 -10 6 0 10 5 10 10 0 6 -4 10 -10 10 -5 0
-10 -4 -10 -10z"/>
<path d="M1895 970 c-3 -5 1 -10 10 -10 9 0 13 5 10 10 -3 6 -8 10 -10 10 -2
0 -7 -4 -10 -10z"/>
<path d="M5986 961 c-4 -5 -2 -12 3 -15 5 -4 12 -2 15 3 4 5 2 12 -3 15 -5 4
-12 2 -15 -3z"/>
<path d="M6202 858 c6 -18 28 -21 28 -4 0 9 -7 16 -16 16 -9 0 -14 -5 -12 -12z"/>
<path d="M8230 851 c0 -5 5 -13 10 -16 6 -3 10 -2 10 4 0 5 -4 13 -10 16 -5 3
-10 2 -10 -4z"/>
<path d="M5360 800 c0 -5 7 -10 15 -10 8 0 15 5 15 10 0 6 -7 10 -15 10 -8 0
-15 -4 -15 -10z"/>
<path d="M5760 762 c0 -14 28 -23 36 -11 3 6 3 13 0 16 -3 4 -6 1 -6 -7 0 -10
-3 -10 -15 0 -9 7 -15 8 -15 2z"/>
<path d="M2400 560 c0 -5 7 -10 15 -10 8 0 15 5 15 10 0 6 -7 10 -15 10 -8 0
-15 -4 -15 -10z"/>
<path d="M8430 522 c0 -12 19 -26 26 -19 2 2 -2 10 -11 17 -9 8 -15 8 -15 2z"/>
<path d="M6417 463 c-10 -16 11 -39 23 -27 8 8 7 14 -4 23 -8 7 -17 8 -19 4z"/>
<path d="M1455 471 c-3 -5 -1 -12 5 -16 12 -7 30 2 30 16 0 12 -27 12 -35 0z"/>
<path d="M5552 229 c2 -6 8 -10 13 -10 5 0 11 4 13 10 2 6 -4 11 -13 11 -9 0
-15 -5 -13 -11z"/>
<path d="M7266 7263 c-4 -9 -13 -13 -21 -9 -17 6 -28 -15 -50 -96 -7 -27 -9
-48 -4 -48 5 0 9 -7 9 -15 0 -8 7 -15 17 -15 14 0 14 2 -2 20 -19 21 -7 28 13
8 17 -17 15 -2 -4 27 -16 24 -16 25 7 23 15 -2 24 2 25 12 1 8 2 22 3 30 1 12
3 12 9 2 11 -17 39 -6 45 18 3 11 -4 26 -18 38 -20 18 -24 18 -29 5z"/>
<path d="M7335 7190 c3 -5 10 -10 16 -10 5 0 9 5 9 10 0 6 -7 10 -16 10 -8 0
-12 -4 -9 -10z"/>
<path d="M7380 7156 c0 -12 34 -28 65 -30 5 -1 11 -9 13 -18 2 -13 -3 -18 -17
-18 -13 0 -21 6 -21 16 0 9 -6 14 -12 12 -21 -7 -15 -32 10 -43 26 -11 28 -22
7 -28 -11 -3 -10 -4 2 -3 10 1 17 9 17 19 -2 17 11 23 19 10 2 -5 2 -3 1 4 -5
19 12 24 41 13 l26 -10 -18 25 c-11 15 -24 22 -35 19 -12 -4 -18 0 -18 10 0 9
-8 16 -19 16 -11 0 -23 5 -26 10 -9 15 -35 12 -35 -4z"/>
<path d="M7340 7150 c0 -5 5 -10 10 -10 6 0 10 5 10 10 0 6 -4 10 -10 10 -5 0
-10 -4 -10 -10z"/>
<path d="M7267 7144 c-10 -11 -9 -44 2 -44 15 0 19 13 12 33 -4 10 -10 15 -14
11z"/>
<path d="M7637 7131 c-4 -17 -3 -21 5 -13 5 5 8 16 6 23 -3 8 -7 3 -11 -10z"/>
<path d="M7520 7125 c-14 -16 -3 -20 19 -6 8 5 9 11 3 15 -5 3 -15 -1 -22 -9z"/>
<path d="M7641 7074 c0 -11 3 -14 6 -6 3 7 2 16 -1 19 -3 4 -6 -2 -5 -13z"/>
<path d="M7240 7070 c-12 -7 -12 -12 -2 -22 10 -10 15 -10 22 2 12 18 13 30 3
30 -5 0 -15 -5 -23 -10z"/>
<path d="M7555 7070 c-4 -6 -15 -8 -26 -5 -17 6 -19 3 -13 -19 5 -21 3 -25 -9
-20 -17 6 -32 -12 -17 -21 5 -3 10 -15 10 -26 0 -10 3 -19 8 -19 4 0 8 -16 9
-36 1 -20 7 -42 12 -47 13 -13 15 -30 2 -23 -5 3 -7 -9 -6 -27 2 -17 3 -41 4
-51 2 -41 20 0 26 59 4 44 11 64 26 75 16 13 17 18 7 28 -10 10 -10 15 -1 20
7 4 11 18 10 30 -1 21 -13 27 -50 24 -11 -1 -17 3 -14 10 2 8 17 12 36 10 21
-1 34 3 38 14 10 25 -38 47 -52 24z m14 -89 c-15 -5 -22 6 -14 19 6 9 10 9 16
-1 5 -8 4 -15 -2 -18z"/>
<path d="M7192 7048 c-12 -15 -44 -169 -37 -176 3 -3 5 -2 5 3 0 4 6 3 13 -4
11 -8 16 -3 27 24 8 19 19 35 26 35 9 0 10 8 4 31 -5 18 -7 36 -4 40 3 5 -2 6
-12 2 -14 -5 -15 -1 -9 25 7 34 4 40 -13 20z"/>
<path d="M8560 6999 c0 -17 -4 -19 -22 -13 -22 6 -22 6 -7 -12 9 -11 19 -27
22 -36 9 -25 22 -22 24 5 1 12 4 34 8 50 6 21 4 27 -9 27 -10 0 -16 -8 -16
-21z"/>
<path d="M8300 6990 c0 -5 5 -10 11 -10 5 0 7 5 4 10 -3 6 -8 10 -11 10 -2 0
-4 -4 -4 -10z"/>
<path d="M7130 6909 c0 -5 5 -7 10 -4 6 3 10 8 10 11 0 2 -4 4 -10 4 -5 0 -10
-5 -10 -11z"/>
<path d="M8379 6916 c-3 -3 -4 -19 -1 -36 5 -34 32 -42 32 -9 0 16 4 19 20 14
14 -5 20 -2 20 9 0 9 -6 16 -12 16 -7 0 -22 3 -33 6 -11 3 -23 3 -26 0z"/>
<path d="M9451 6894 c0 -11 3 -14 6 -6 3 7 2 16 -1 19 -3 4 -6 -2 -5 -13z"/>
<path d="M7980 6890 c0 -5 5 -10 10 -10 6 0 10 5 10 10 0 6 -4 10 -10 10 -5 0
-10 -4 -10 -10z"/>
<path d="M9470 6852 c0 -18 -4 -32 -8 -32 -11 0 -15 -199 -6 -308 3 -46 8 -81
10 -79 13 13 22 432 10 445 -3 3 -6 -9 -6 -26z"/>
<path d="M7131 6840 c1 -14 4 -36 8 -50 6 -21 8 -22 14 -8 3 10 0 32 -8 50
-13 30 -14 31 -14 8z"/>
<path d="M7190 6765 c0 -5 5 -17 10 -25 5 -8 10 -10 10 -5 0 6 -5 17 -10 25
-5 8 -10 11 -10 5z"/>
<path d="M7132 6708 c-1 -27 2 -48 8 -48 6 0 10 -7 10 -15 0 -8 5 -15 10 -15
15 0 12 16 -4 30 -8 6 -17 30 -19 53 l-4 42 -1 -47z"/>
<path d="M7511 6723 c-6 -15 -13 -47 -15 -69 -3 -45 -13 -67 -26 -59 -4 3 -11
-12 -15 -33 -4 -20 -29 -84 -56 -141 -28 -57 -48 -105 -46 -108 6 -5 86 145
109 203 10 23 14 45 11 48 -4 3 0 12 9 19 22 18 48 90 42 118 -5 19 -4 21 5 9
10 -13 11 -13 11 0 0 8 -4 21 -9 28 -6 10 -11 6 -20 -15z"/>
<path d="M8351 6734 c0 -11 3 -14 6 -6 3 7 2 16 -1 19 -3 4 -6 -2 -5 -13z"/>
<path d="M7351 6694 c0 -11 3 -14 6 -6 3 7 2 16 -1 19 -3 4 -6 -2 -5 -13z"/>
<path d="M8360 6701 c0 -5 5 -13 10 -16 6 -3 10 -2 10 4 0 5 -4 13 -10 16 -5
3 -10 2 -10 -4z"/>
<path d="M8411 6533 c0 -5 4 -17 9 -28 8 -18 9 -17 9 8 1 15 -3 27 -9 27 -5 0
-10 -3 -9 -7z"/>
<path d="M3346 6463 c-6 -14 -5 -15 5 -6 7 7 10 15 7 18 -3 3 -9 -2 -12 -12z"/>
<path d="M9493 6445 c0 -22 2 -30 4 -17 2 12 2 30 0 40 -3 9 -5 -1 -4 -23z"/>
<path d="M8095 6425 c4 -22 11 -44 16 -50 12 -12 0 53 -13 75 -6 10 -7 1 -3
-25z"/>
<path d="M8426 6433 c9 -38 14 -42 14 -10 0 14 -5 29 -10 32 -7 4 -8 -3 -4
-22z"/>
<path d="M3310 6419 c0 -5 5 -7 10 -4 6 3 10 8 10 11 0 2 -4 4 -10 4 -5 0 -10
-5 -10 -11z"/>
<path d="M3267 6382 c-15 -15 -27 -32 -27 -37 0 -5 8 0 18 11 49 55 56 75 9
26z"/>
<path d="M6035 6399 c-4 -6 2 -20 12 -32 11 -12 26 -37 33 -54 13 -34 30 -44
30 -19 0 13 -59 116 -66 116 -2 0 -6 -5 -9 -11z"/>
<path d="M9493 6345 c0 -33 2 -45 4 -27 2 18 2 45 0 60 -2 15 -4 0 -4 -33z"/>
<path d="M3301 6344 c0 -11 3 -14 6 -6 3 7 2 16 -1 19 -3 4 -6 -2 -5 -13z"/>
<path d="M8115 6267 c-1 -51 -4 -105 -8 -121 -7 -26 -7 -28 8 -16 13 11 16 31
14 111 -3 126 -14 146 -14 26z"/>
<path d="M8432 6310 c0 -14 2 -19 5 -12 2 6 2 18 0 25 -3 6 -5 1 -5 -13z"/>
<path d="M8431 6254 c0 -11 3 -14 6 -6 3 7 2 16 -1 19 -3 4 -6 -2 -5 -13z"/>
<path d="M6126 6237 c3 -10 9 -15 12 -12 3 3 0 11 -7 18 -10 9 -11 8 -5 -6z"/>
<path d="M8105 6102 c-5 -4 -16 -18 -23 -31 l-14 -24 31 22 c17 12 31 27 31
32 0 11 -11 12 -25 1z"/>
<path d="M3858 5683 c6 -2 18 -2 25 0 6 3 1 5 -13 5 -14 0 -19 -2 -12 -5z"/>
<path d="M6299 5348 c-7 -13 -19 -34 -27 -48 -10 -17 -5 -15 17 10 17 19 31
40 31 47 0 19 -8 16 -21 -9z"/>
<path d="M2751 5314 c0 -11 3 -14 6 -6 3 7 2 16 -1 19 -3 4 -6 -2 -5 -13z"/>
<path d="M2687 5023 c-4 -3 -7 -11 -7 -17 0 -6 5 -5 12 2 6 6 9 14 7 17 -3 3
-9 2 -12 -2z"/>
<path d="M3192 5000 c0 -14 2 -19 5 -12 2 6 2 18 0 25 -3 6 -5 1 -5 -13z"/>
<path d="M3107 4948 c6 -7 14 -26 18 -43 6 -26 8 -27 14 -11 12 32 1 66 -21
66 -15 0 -18 -3 -11 -12z"/>
<path d="M2982 4905 c0 -16 2 -22 5 -12 2 9 2 23 0 30 -3 6 -5 -1 -5 -18z"/>
<path d="M4220 4664 c-24 -23 -24 -24 -3 -24 13 0 23 8 26 22 8 29 6 29 -23 2z"/>
<path d="M9232 4660 c-18 -29 -15 -38 4 -12 9 13 14 25 12 27 -2 2 -9 -5 -16
-15z"/>
<path d="M3233 4096 c1 -11 9 -21 17 -23 10 -3 11 -2 4 4 -6 4 -14 15 -17 23
-5 11 -6 9 -4 -4z"/>
<path d="M3778 3993 c12 -2 32 -2 45 0 12 2 2 4 -23 4 -25 0 -35 -2 -22 -4z"/>
<path d="M5500 3911 c0 -6 5 -13 10 -16 6 -3 10 1 10 9 0 9 -4 16 -10 16 -5 0
-10 -4 -10 -9z"/>
<path d="M5380 3584 c0 -8 5 -12 10 -9 6 3 10 10 10 16 0 5 -4 9 -10 9 -5 0
-10 -7 -10 -16z"/>
<path d="M5361 3524 c0 -11 3 -14 6 -6 3 7 2 16 -1 19 -3 4 -6 -2 -5 -13z"/>
<path d="M5396 3511 c-4 -7 -5 -15 -2 -18 9 -9 19 4 14 18 -4 11 -6 11 -12 0z"/>
<path d="M2140 3240 c0 -5 5 -10 10 -10 6 0 10 5 10 10 0 6 -4 10 -10 10 -5 0
-10 -4 -10 -10z"/>
<path d="M2128 3175 c-6 -30 -3 -43 8 -33 3 4 4 19 2 35 l-3 28 -7 -30z"/>
<path d="M2111 3107 c-8 -10 -7 -14 4 -14 8 0 15 6 15 14 0 7 -2 13 -4 13 -2
0 -9 -6 -15 -13z"/>
<path d="M4990 2096 c0 -9 5 -16 10 -16 6 0 10 4 10 9 0 6 -4 13 -10 16 -5 3
-10 -1 -10 -9z"/>
<path d="M4355 1920 c3 -5 8 -10 11 -10 2 0 4 5 4 10 0 6 -5 10 -11 10 -5 0
-7 -4 -4 -10z"/>
<path d="M4925 1830 c3 -5 8 -10 11 -10 2 0 4 5 4 10 0 6 -5 10 -11 10 -5 0
-7 -4 -4 -10z"/>
<path d="M4711 1234 c0 -11 3 -14 6 -6 3 7 2 16 -1 19 -3 4 -6 -2 -5 -13z"/>
<path d="M4642 1065 c0 -16 2 -22 5 -12 2 9 2 23 0 30 -3 6 -5 -1 -5 -18z"/>
<path d="M4671 1069 c0 -14 6 -34 14 -45 13 -17 14 -17 15 -1 0 9 -4 17 -9 17
-5 0 -12 12 -14 28 -4 27 -4 27 -6 1z"/>
<path d="M4721 814 c0 -11 3 -14 6 -6 3 7 2 16 -1 19 -3 4 -6 -2 -5 -13z"/>
<path d="M4711 604 c0 -11 3 -14 6 -6 3 7 2 16 -1 19 -3 4 -6 -2 -5 -13z"/>
<path d="M4741 594 c0 -11 3 -14 6 -6 3 7 2 16 -1 19 -3 4 -6 -2 -5 -13z"/>
<path d="M2175 89 c-10 -15 3 -25 16 -12 7 7 7 13 1 17 -6 3 -14 1 -17 -5z"/>
</g>
</svg>
